<svg width="81" height="75" viewBox="0 0 81 75" fill="none" xmlns="http://www.w3.org/2000/svg">
<g clip-path="url(#clip0_3_209)">
<path d="M41.0699 36.9301L8.02991 18.2901V55.5801L41.0699 36.9301Z" fill="white"></path>
<path d="M41.0699 36.9301L8.02991 55.5801L41.0699 74.2201L74.0999 55.5801L41.0699 36.9301Z" fill="#27BDBE"></path>
<path d="M41.0699 -0.359924L8.02991 18.2901L41.0699 36.9301L74.0999 18.2901L41.0699 -0.359924Z" fill="#ED3030"></path>
<path d="M72.3199 63.8001C72.8499 64.1101 73.2699 64.5201 73.5799 65.0601C73.8899 65.5901 74.0399 66.1801 74.0399 66.8201C74.0399 67.4601 73.8899 68.0601 73.5799 68.5901C73.2699 69.1201 72.8499 69.5401 72.3199 69.8501C71.7799 70.1601 71.1899 70.3101 70.5499 70.3101C69.9099 70.3101 69.3199 70.1601 68.7799 69.8501C68.2499 69.5401 67.8199 69.1201 67.5199 68.5901C67.2099 68.0601 67.0599 67.4701 67.0599 66.8201C67.0599 66.1701 67.2099 65.5801 67.5199 65.0501C67.8299 64.5201 68.2499 64.1101 68.7799 63.8001C69.3099 63.4901 69.8999 63.3401 70.5499 63.3401C71.1999 63.3401 71.7899 63.4901 72.3199 63.8001ZM72.0899 69.4801C72.5499 69.2101 72.9099 68.8401 73.1799 68.3801C73.4399 67.9101 73.5699 67.3901 73.5699 66.8201C73.5699 66.2501 73.4399 65.7401 73.1799 65.2701C72.9199 64.8101 72.5499 64.4401 72.0899 64.1701C71.6299 63.9001 71.1199 63.7701 70.5499 63.7701C69.9799 63.7701 69.4699 63.9001 68.9999 64.1701C68.5399 64.4401 68.1699 64.8001 67.9099 65.2701C67.6499 65.7301 67.5099 66.2501 67.5099 66.8201C67.5099 67.3901 67.6399 67.9201 67.9099 68.3801C68.1699 68.8401 68.5399 69.2101 68.9999 69.4801C69.4599 69.7501 69.9799 69.8801 70.5499 69.8801C71.1199 69.8801 71.6299 69.7501 72.0899 69.4801ZM71.7399 67.6201L72.4899 68.8901H71.6899L70.92 67.5701C70.84 67.4501 70.76 67.3601 70.67 67.3101C70.58 67.2601 70.4599 67.2401 70.3199 67.2401H69.8099V68.8901H69.0899V64.7601H70.8099C71.2699 64.7601 71.6199 64.8701 71.8699 65.0801C72.1199 65.3001 72.2399 65.6001 72.2399 65.9901C72.2399 66.3101 72.1499 66.5701 71.9699 66.7801C71.7799 66.9901 71.5199 67.1201 71.1899 67.1701C71.3999 67.2301 71.5899 67.3801 71.7399 67.6201ZM71.3299 66.5101C71.4599 66.4001 71.5199 66.2401 71.5199 66.0101C71.5199 65.7701 71.4599 65.6001 71.3299 65.4901C71.1999 65.3801 70.9999 65.3301 70.7199 65.3301H69.7999V66.6601H70.7199C70.9999 66.6601 71.1999 66.6101 71.3299 66.5001" fill="white"></path>
</g>
<defs>
<clipPath id="clip0_3_209">
<rect width="81" height="75" fill="white"></rect>
</clipPath>
</defs>
</svg>