<svg width="381" height="75" viewBox="0 0 381 75" fill="none" xmlns="http://www.w3.org/2000/svg">
<g clip-path="url(#clip0_3_63)">
<path d="M0 37.36C0 26.44 8.45 18.06 19.44 18.06C28.03 18.06 34.62 22.8 37.51 29.81L28.79 33.31C27.28 29.33 23.84 26.92 19.58 26.92C13.88 26.92 9.41 31.59 9.41 37.36C9.41 43.13 13.94 47.66 19.64 47.66C24.04 47.66 27.33 44.98 28.85 41.2L37.71 44.84C34.55 51.71 28.37 56.65 19.51 56.65C8.38 56.66 0 48.14 0 37.36Z" fill="#021660"></path>
<path d="M41.05 37.36C41.05 26.65 49.5 18.06 60.63 18.06C71.76 18.06 80.27 26.65 80.27 37.36C80.27 48.07 71.82 56.66 60.63 56.66C49.44 56.66 41.05 48.01 41.05 37.36ZM70.86 37.29C70.86 31.52 66.33 26.92 60.69 26.92C55.05 26.92 50.52 31.52 50.52 37.29C50.52 43.06 54.99 47.66 60.69 47.66C66.39 47.66 70.86 43.06 70.86 37.29Z" fill="#021660"></path>
<path d="M79.93 18.82H89.96L99.09 43.82L108.3 18.82H118.12L103.56 55.91H94.15L79.93 18.82Z" fill="#021660"></path>
<path d="M118.77 37.43C118.77 26.64 127.15 18.06 138.21 18.06C149.27 18.06 157.37 26.1 157.37 37.09V40.66H127.9C129.14 45.47 133.05 48.49 138.55 48.49C142.95 48.49 145.9 46.57 147.76 43.54L155.52 48.07C151.81 53.29 146.59 56.66 138.42 56.66C126.47 56.66 118.78 48.21 118.78 37.43M128.18 33.24H147.96C146.73 28.64 143.15 26.1 138.21 26.1C133.27 26.1 129.69 28.92 128.18 33.24Z" fill="#021660"></path>
<path d="M159.84 18.82H166.71V10.78L176.05 5.28V18.81H185.8V27.19H176.05V42.44C176.05 46.35 177.7 47.73 180.1 47.73C181.4 47.73 182.43 47.32 183.53 46.36L187.86 53.78C185.46 55.57 182.43 56.6 179 56.6C171.24 56.6 166.7 52.89 166.7 42.79V27.2H159.83V18.82H159.84Z" fill="#021660"></path>
<path d="M194.08 18.82H203.42V24.52C205.21 20.12 208.92 18.13 213.65 18.13C216.12 18.13 218.32 18.75 219.9 19.57L216.47 28.91C215.44 28.15 213.65 27.61 211.52 27.61C206.64 27.61 203.48 30.08 203.48 36.33V55.91H194.07V18.82H194.08Z" fill="#021660"></path>
<path d="M222.99 41.07V18.82H232.67V39.77C232.67 44.99 235.14 48.22 240.23 48.22C244.7 48.22 247.99 44.99 247.99 39.22V18.82L257.6 18.75V55.84L248.12 55.91V51.24C245.72 54.61 241.94 56.66 237.41 56.66C228.27 56.66 222.99 50.82 222.99 41.07Z" fill="#021660"></path>
<path d="M263.52 47.46L272.65 43.89C274.3 47.19 277.25 48.9 281.17 48.9C285.09 48.9 287.08 47.04 287.08 44.85C287.08 42.17 283.1 41.55 278.36 40.59C272.11 39.29 265.17 37.36 265.17 29.53C265.17 23.28 271.21 17.85 280.35 17.92C288.18 17.92 292.85 20.87 296.29 25.82L287.64 29.32C286.13 26.85 283.79 25.41 280.36 25.41C276.65 25.41 274.87 26.92 274.87 28.98C274.87 31.32 277.89 31.94 283.32 33.1C289.5 34.34 296.78 36.47 296.78 44.43C296.78 50.2 291.63 56.73 280.85 56.65C272.06 56.65 266.49 53.35 263.54 47.45" fill="#021660"></path>
<path d="M347.32 37.29L314.28 18.65V55.94L347.32 37.29Z" fill="#021660"></path>
<path d="M347.32 37.29L314.28 55.94L347.32 74.58L380.35 55.94L347.32 37.29Z" fill="#27BDBE"></path>
<path d="M347.32 0L314.28 18.65L347.32 37.29L380.35 18.65L347.32 0Z" fill="#ED3030"></path>
<path d="M378.57 64.16C379.1 64.47 379.52 64.88 379.83 65.42C380.14 65.95 380.29 66.54 380.29 67.18C380.29 67.82 380.14 68.42 379.83 68.95C379.52 69.48 379.1 69.9 378.57 70.21C378.03 70.52 377.44 70.67 376.8 70.67C376.16 70.67 375.57 70.52 375.03 70.21C374.5 69.9 374.07 69.48 373.77 68.95C373.46 68.42 373.31 67.83 373.31 67.18C373.31 66.53 373.46 65.94 373.77 65.41C374.08 64.88 374.5 64.47 375.03 64.16C375.56 63.85 376.15 63.7 376.8 63.7C377.45 63.7 378.04 63.85 378.57 64.16ZM378.34 69.84C378.8 69.57 379.16 69.2 379.43 68.74C379.69 68.27 379.82 67.75 379.82 67.18C379.82 66.61 379.69 66.1 379.43 65.63C379.17 65.17 378.8 64.8 378.34 64.53C377.88 64.26 377.37 64.13 376.8 64.13C376.23 64.13 375.72 64.26 375.25 64.53C374.79 64.8 374.42 65.16 374.16 65.63C373.9 66.09 373.76 66.61 373.76 67.18C373.76 67.75 373.89 68.28 374.16 68.74C374.42 69.2 374.79 69.57 375.25 69.84C375.71 70.11 376.23 70.24 376.8 70.24C377.37 70.24 377.88 70.11 378.34 69.84ZM377.99 67.98L378.74 69.25H377.94L377.17 67.93C377.09 67.81 377.01 67.72 376.92 67.67C376.83 67.62 376.71 67.6 376.57 67.6H376.06V69.25H375.34V65.12H377.06C377.52 65.12 377.87 65.23 378.12 65.44C378.37 65.66 378.49 65.96 378.49 66.35C378.49 66.67 378.4 66.93 378.22 67.14C378.03 67.35 377.77 67.48 377.44 67.53C377.65 67.59 377.84 67.74 377.99 67.98ZM377.58 66.87C377.71 66.76 377.77 66.6 377.77 66.37C377.77 66.13 377.71 65.96 377.58 65.85C377.45 65.74 377.25 65.69 376.97 65.69H376.05V67.02H376.97C377.25 67.02 377.45 66.97 377.58 66.86" fill="#021660"></path>
</g>
<defs>
<clipPath id="clip0_3_63">
<rect width="380.35" height="74.58" fill="white"></rect>
</clipPath>
</defs>
</svg>