<svg width="75" height="75" viewBox="0 0 75 75" fill="none" xmlns="http://www.w3.org/2000/svg">
<g clip-path="url(#clip0_199_73)">
<path d="M43.88 50.56V50.67H46.85L46.9 38.2L46.91 38.1H43.93L43.88 50.56Z" fill="#27BDBE"></path>
<path d="M49.58 50.56V50.66L52.56 50.67L52.61 34.86V34.76L49.63 34.75L49.58 50.56Z" fill="#27BDBE"></path>
<path d="M55.34 29.9L55.29 50.56V50.66L58.26 50.67L58.31 30.01V29.91L55.34 29.9Z" fill="#27BDBE"></path>
<path d="M60.74 14H13.99C11.24 14 9 16.24 9 18.99V55.43C9 58.18 11.24 60.42 13.99 60.42H60.74C63.49 60.42 65.72 58.18 65.72 55.43V18.99C65.72 16.24 63.49 14 60.74 14ZM63.52 18.99V55.43C63.52 56.97 62.27 58.22 60.74 58.22H13.99C12.45 58.22 11.2 56.97 11.2 55.43V18.99C11.2 17.45 12.45 16.2 13.99 16.2H60.74C62.27 16.2 63.52 17.45 63.52 18.99Z" fill="#191919"></path>
<path d="M19.6712 48.5881L19.6666 50.7881L35.5866 50.8214L35.5912 48.6214L19.6712 48.5881Z" fill="#191919"></path>
<path d="M27.63 22.26C21.61 22.26 16.71 27.16 16.71 33.18C16.71 39.2 21.61 44.1 27.63 44.1C33.65 44.1 38.55 39.2 38.55 33.18C38.55 27.16 33.65 22.26 27.63 22.26ZM27.63 34.28H36.28C35.73 38.65 32.06 41.9 27.63 41.9C22.82 41.9 18.9 37.99 18.9 33.18C18.9 28.75 22.16 25.08 26.53 24.53V33.18C26.53 33.79 27.02 34.28 27.63 34.28ZM28.73 24.53C32.67 25.03 35.79 28.14 36.28 32.08H28.73V24.53Z" fill="#191919"></path>
</g>
<defs>
<clipPath id="clip0_199_73">
<rect width="56.72" height="46.42" fill="white" transform="translate(9 14)"></rect>
</clipPath>
</defs>
</svg>