<svg width="75" height="75" viewBox="0 0 75 75" fill="none" xmlns="http://www.w3.org/2000/svg">
<g clip-path="url(#clip0_199_195)">
<path d="M56.63 10C51.24 10 46.87 14.37 46.87 19.76C46.87 25.15 51.24 29.52 56.63 29.52C62.02 29.52 66.39 25.15 66.39 19.76C66.39 14.37 62.02 10 56.63 10ZM59.75 24.81L55.76 20.73C55.62 20.59 55.54 20.4 55.54 20.21V14.7H57.04V19.9L60.82 23.76L59.75 24.81Z" fill="#27BDBE"></path>
<path d="M61.34 32.69H59.28V50.08H11.05V21.6C11.05 19.95 12.39 18.6 14.05 18.6H42.98V16.54H14.05C11.26 16.54 9 18.81 9 21.59V53.36C9 56.15 11.27 58.41 14.05 58.41H25.66V63.32H22.41V65.38H47.73V63.32H44.48V58.41H56.3C59.09 58.41 61.35 56.14 61.35 53.36V32.68L61.34 32.69ZM42.43 59.1V63.33H27.72V59.1H42.43ZM59.3 52.13V53.37C59.3 55.02 57.96 56.37 56.3 56.37H14.05C12.4 56.37 11.05 55.03 11.05 53.37V52.13H59.3Z" fill="#191919"></path>
<path d="M42 25.75H39.8V26.94H38.05V25.75H35.85V26.94H34.3V25.75H32.1V26.94H30.34V25.75H28.14V26.94H26.74C25.01 26.94 23.6 28.35 23.6 30.08V42.82C23.6 44.55 25.01 45.96 26.74 45.96H43.4C45.13 45.96 46.54 44.55 46.54 42.82V30.08C46.54 28.35 45.13 26.94 43.4 26.94H42V25.75ZM25.8 30.08C25.8 29.56 26.22 29.14 26.74 29.14H28.14V29.95H30.34V29.14H32.1V29.95H34.3V29.14H35.85V29.95H38.05V29.14H39.8V29.95H42V29.14H43.4C43.92 29.14 44.34 29.56 44.34 30.08V31.08H25.8V30.08ZM44.35 33.28V42.82C44.35 43.34 43.93 43.76 43.41 43.76H26.75C26.23 43.76 25.81 43.34 25.81 42.82V33.28H44.35Z" fill="#191919"></path>
</g>
<defs>
<clipPath id="clip0_199_195">
<rect width="57.39" height="55.39" fill="white" transform="translate(9 10)"></rect>
</clipPath>
</defs>
</svg>