<svg width="75" height="75" viewBox="0 0 75 75" fill="none" xmlns="http://www.w3.org/2000/svg">
<g clip-path="url(#clip0_199_233)">
<path d="M50.49 10H20.99C18.24 10 16 12.24 16 14.99V56.42C16 59.17 18.24 61.41 20.99 61.41H40.54V59.21H20.99C19.45 59.21 18.2 57.96 18.2 56.42V14.99C18.2 13.45 19.45 12.2 20.99 12.2H50.5C52.26 12.2 53.7 13.64 53.7 15.4V46.03H55.9V15.4C55.9 12.42 53.48 10 50.5 10H50.49Z" fill="#191919"></path>
<path d="M25.5799 31.02L25.5699 33.22L46.0599 33.25H46.3099L46.3199 31.05L25.8299 31.02H25.5799Z" fill="#191919"></path>
<path d="M25.5799 22.35L25.5699 24.55L46.0599 24.58H46.3099L46.3199 22.38L25.8299 22.35H25.5799Z" fill="#191919"></path>
<path d="M25.5799 39.33L25.5699 41.53L46.0599 41.56H46.3099L46.3199 39.36L25.8299 39.33H25.5799Z" fill="#191919"></path>
<path d="M50.84 48.36C46.48 48.36 42.92 51.91 42.92 56.28C42.92 60.65 46.48 64.2 50.84 64.2C55.2 64.2 58.76 60.65 58.76 56.28C58.76 51.91 55.21 48.36 50.84 48.36ZM51.79 60.69V61.44C51.79 61.72 51.56 61.95 51.28 61.95H50.58C50.3 61.95 50.07 61.72 50.07 61.44V60.73C49.4 60.58 48.75 60.24 48.28 59.78C48.19 59.72 48.13 59.6 48.11 59.47C48.1 59.34 48.13 59.21 48.21 59.11L48.65 58.48C48.7 58.38 48.84 58.29 48.99 58.26C49.15 58.25 49.29 58.28 49.4 58.38C49.91 58.81 50.38 59.02 50.84 59.02C51.54 59.02 51.63 58.66 51.63 58.35C51.63 57.81 51.18 57.54 50.45 57.16C49.56 56.72 48.4 56.15 48.4 54.64C48.4 53.53 49.05 52.64 50.07 52.32V51.57C50.07 51.29 50.3 51.06 50.58 51.06H51.28C51.57 51.06 51.79 51.28 51.79 51.57V52.29C52.5 52.47 52.96 52.89 53.28 53.24C53.45 53.43 53.45 53.73 53.29 53.92L52.79 54.48C52.57 54.7 52.26 54.67 52.07 54.53C51.67 54.14 51.44 53.99 51 53.99C50.59 53.99 50.35 54.21 50.35 54.59C50.35 54.99 50.68 55.2 51.44 55.57C52.35 56.02 53.57 56.62 53.57 58.28C53.57 59.45 52.89 60.36 51.79 60.69Z" fill="#27BDBE"></path>
</g>
<defs>
<clipPath id="clip0_199_233">
<rect width="42.76" height="54.2" fill="white" transform="translate(16 10)"></rect>
</clipPath>
</defs>
</svg>