<svg width="75" height="75" viewBox="0 0 75 75" fill="none" xmlns="http://www.w3.org/2000/svg">
<g clip-path="url(#clip0_199_120)">
<path d="M27.89 32.56H22.62V37.69H27.89V32.56Z" fill="#27BDBE"></path>
<path d="M27.89 38.44H22.62C22.21 38.44 21.87 38.1 21.87 37.69V32.56C21.87 32.15 22.21 31.81 22.62 31.81H27.89C28.3 31.81 28.64 32.15 28.64 32.56V37.69C28.64 38.1 28.3 38.44 27.89 38.44ZM23.37 36.94H27.14V33.31H23.37V36.94Z" fill="#27BDBE"></path>
<path d="M40.9 32.56H35.63V37.69H40.9V32.56Z" fill="#27BDBE"></path>
<path d="M40.9 38.44H35.63C35.22 38.44 34.88 38.1 34.88 37.69V32.56C34.88 32.15 35.22 31.81 35.63 31.81H40.9C41.31 31.81 41.65 32.15 41.65 32.56V37.69C41.65 38.1 41.31 38.44 40.9 38.44ZM36.38 36.94H40.15V33.31H36.38V36.94Z" fill="#27BDBE"></path>
<path d="M27.89 45.76H22.62V50.89H27.89V45.76Z" fill="#27BDBE"></path>
<path d="M27.89 51.64H22.62C22.21 51.64 21.87 51.3 21.87 50.89V45.76C21.87 45.35 22.21 45.01 22.62 45.01H27.89C28.3 45.01 28.64 45.35 28.64 45.76V50.89C28.64 51.3 28.3 51.64 27.89 51.64ZM23.37 50.14H27.14V46.51H23.37V50.14Z" fill="#27BDBE"></path>
<path d="M40.9 45.76H35.63V50.89H40.9V45.76Z" fill="#27BDBE"></path>
<path d="M40.9 51.64H35.63C35.22 51.64 34.88 51.3 34.88 50.89V45.76C34.88 45.35 35.22 45.01 35.63 45.01H40.9C41.31 45.01 41.65 45.35 41.65 45.76V50.89C41.65 51.3 41.31 51.64 40.9 51.64ZM36.38 50.14H40.15V46.51H36.38V50.14Z" fill="#27BDBE"></path>
<path d="M53.38 45.76H48.11V50.89H53.38V45.76Z" fill="#27BDBE"></path>
<path d="M53.38 51.64H48.11C47.7 51.64 47.36 51.3 47.36 50.89V45.76C47.36 45.35 47.7 45.01 48.11 45.01H53.38C53.79 45.01 54.13 45.35 54.13 45.76V50.89C54.13 51.3 53.79 51.64 53.38 51.64ZM48.86 50.14H52.63V46.51H48.86V50.14Z" fill="#27BDBE"></path>
<path d="M56.75 14.45H53.83V13H51.63V14.45H48.12V13H45.92V14.45H42.1V13H39.9V14.45H36.08V13H33.88V14.45H30.37V13H28.17V14.45H24.35V13H22.15V14.45H19.23C15.8 14.45 13 17.25 13 20.69V55.08C13 58.52 15.8 61.32 19.24 61.32H56.75C60.19 61.32 62.99 58.52 62.99 55.08V20.69C62.99 17.25 60.19 14.45 56.75 14.45ZM60.8 24.44V55.08C60.8 57.31 58.99 59.12 56.76 59.12H19.24C17.01 59.12 15.2 57.31 15.2 55.08V24.44H60.8ZM24.36 18.09V16.64H28.18V18.09H30.38V16.64H33.89V18.09H36.09V16.64H39.91V18.09H42.11V16.64H45.93V18.09H48.13V16.64H51.64V18.09H53.84V16.64H56.76C58.99 16.64 60.8 18.45 60.8 20.68V22.23H15.2V20.68C15.2 18.45 17.01 16.64 19.24 16.64H22.16V18.09H24.36Z" fill="#191919"></path>
<path d="M48.4901 38.95L50.7501 36.69L53.0101 38.95L54.5601 37.39L52.3001 35.13L54.5601 32.87L53.0101 31.31L50.7501 33.57L48.4901 31.31L46.9301 32.87L49.1901 35.13L46.9301 37.39L48.4901 38.95Z" fill="#191919"></path>
</g>
<defs>
<clipPath id="clip0_199_120">
<rect width="50" height="48.33" fill="white" transform="translate(13 13)"></rect>
</clipPath>
</defs>
</svg>