<svg width="75" height="75" viewBox="0 0 75 75" fill="none" xmlns="http://www.w3.org/2000/svg">
<g clip-path="url(#clip0_199_221)">
<path d="M34.09 26.6C28.88 26.6 24.64 30.84 24.64 36.05C24.64 41.26 28.88 45.5 34.09 45.5C39.3 45.5 43.54 41.26 43.54 36.05C43.54 30.84 39.3 26.6 34.09 26.6ZM34.09 44C29.71 44 26.14 40.43 26.14 36.05C26.14 31.92 29.31 28.51 33.34 28.13V36.05C33.34 36.46 33.68 36.8 34.09 36.8H42.01C41.63 40.83 38.23 44 34.09 44Z" fill="#27BDBE"></path>
<path d="M43.34 52.41H24.85V54.45H43.34V52.41Z" fill="#191919"></path>
<path d="M57.27 10H18.56C16.05 10 14 12.04 14 14.56V61.19C14 63.09 15.54 64.63 17.44 64.63H51.02C52.91 64.63 54.46 63.09 54.46 61.19V57.71H57.28C59.17 57.71 60.72 56.17 60.72 54.27V13.44C60.72 11.55 59.18 10 57.28 10H57.27ZM51.01 16.92H18.56C17.26 16.92 16.2 15.86 16.2 14.56C16.2 13.26 17.26 12.2 18.56 12.2H57.27C57.95 12.2 58.51 12.75 58.51 13.44V54.27C58.51 54.95 57.96 55.51 57.27 55.51H54.45V20.35C54.45 18.46 52.91 16.91 51.01 16.91V16.92ZM52.25 61.19C52.25 61.87 51.7 62.43 51.01 62.43H17.44C16.76 62.43 16.2 61.87 16.2 61.19V18.46C16.91 18.89 17.72 19.12 18.56 19.12H51.01C51.69 19.12 52.25 19.67 52.25 20.36V61.19Z" fill="#191919"></path>
</g>
<defs>
<clipPath id="clip0_199_221">
<rect width="46.71" height="54.62" fill="white" transform="translate(14 10)"></rect>
</clipPath>
</defs>
</svg>