<svg width="75" height="75" viewBox="0 0 75 75" fill="none" xmlns="http://www.w3.org/2000/svg">
<g clip-path="url(#clip0_199_148)">
<path d="M59.04 32.64H57.34V34.48H59.04C60.77 34.48 62.18 35.89 62.18 37.62V53.25C62.18 54.98 60.77 56.39 59.04 56.39H55.98L50.44 61V56.39H35.48C33.75 56.39 32.34 54.98 32.34 53.25V47.03H30.5V53.25C30.5 56 32.73 58.23 35.48 58.23H48.6V63.22C48.6 63.53 48.78 63.81 49.06 63.95C49.17 64 49.29 64.03 49.4 64.03C49.58 64.03 49.76 63.97 49.91 63.84L56.63 58.24H59.02C61.77 58.24 64 56.01 64 53.26V37.63C64 34.88 61.77 32.65 59.02 32.65L59.04 32.64Z" fill="#27BDBE"></path>
<path d="M49.61 11H15.5C12.47 11 10 13.47 10 16.51V39.3C10 42.34 12.47 44.81 15.51 44.81H17.42L24.09 51.48C24.27 51.66 24.51 51.76 24.76 51.76C24.88 51.76 25.01 51.74 25.13 51.69C25.49 51.54 25.72 51.2 25.72 50.81V44.81H49.62C52.66 44.81 55.13 42.34 55.13 39.3V16.51C55.13 13.47 52.66 11 49.62 11H49.61ZM52.98 16.51V39.3C52.98 41.16 51.47 42.67 49.61 42.67H23.57V47.94L18.29 42.67H15.5C13.64 42.67 12.13 41.16 12.13 39.3V16.51C12.13 14.65 13.64 13.14 15.5 13.14H49.6C51.46 13.14 52.97 14.65 52.97 16.51H52.98Z" fill="#191919"></path>
<path d="M41.86 23.33H23.26V25.47H41.86V23.33Z" fill="#191919"></path>
<path d="M41.86 30.53H23.26V32.67H41.86V30.53Z" fill="#191919"></path>
</g>
<defs>
<clipPath id="clip0_199_148">
<rect width="54.01" height="53.02" fill="white" transform="translate(10 11)"></rect>
</clipPath>
</defs>
</svg>