<svg width="75" height="75" viewBox="0 0 75 75" fill="none" xmlns="http://www.w3.org/2000/svg">
<g clip-path="url(#clip0_199_87)">
<path d="M55.9501 14.1C51.7401 14.1 48.3 17.53 48.3 21.75C48.3 25.97 51.7401 29.4 55.9501 29.4C60.1601 29.4 63.6 25.97 63.6 21.75C63.6 17.53 60.1701 14.1 55.9501 14.1ZM61 19.41L54.78 25.65C54.72 25.71 54.6201 25.75 54.5401 25.75C54.4401 25.75 54.3601 25.71 54.2901 25.65L50.87 22.22C50.73 22.09 50.73 21.87 50.87 21.73L51.89 20.71C52.02 20.58 52.2601 20.58 52.3801 20.71L54.5401 22.86L59.4901 17.91C59.6301 17.77 59.86 17.77 59.98 17.91L61 18.93C61.07 19 61.1101 19.09 61.1101 19.18C61.1101 19.26 61.07 19.36 61 19.42V19.41Z" fill="#27BDBE"></path>
<path d="M60.71 30.94L60.64 30.7L58.53 31.31L58.6 31.55C59.19 33.58 59.48 35.7 59.48 37.84C59.48 50.33 49.32 60.48 36.84 60.48C24.36 60.48 14.2 50.33 14.2 37.84C14.2 25.35 24.36 15.2 36.84 15.2C40.18 15.2 43.4 15.91 46.4 17.31L46.63 17.42L47.56 15.43L47.33 15.32C44.03 13.78 40.5 13 36.84 13C23.14 13 12 24.14 12 37.84C12 51.54 23.14 62.68 36.84 62.68C50.54 62.68 61.68 51.54 61.68 37.84C61.68 35.49 61.35 33.17 60.71 30.94Z" fill="#191919"></path>
<path d="M36.55 39.19H25.58V41.39H37.65C38.26 41.39 38.75 40.9 38.75 40.29V24.51H36.55V39.19Z" fill="#191919"></path>
</g>
<defs>
<clipPath id="clip0_199_87">
<rect width="51.6" height="49.68" fill="white" transform="translate(12 13)"></rect>
</clipPath>
</defs>
</svg>