<svg width="75" height="75" viewBox="0 0 75 75" fill="none" xmlns="http://www.w3.org/2000/svg">
<g clip-path="url(#clip0_199_140)">
<path d="M64.0001 29.77C63.7901 29.38 63.2901 29.39 63.2601 29.41H53.1801L58.7001 20.15C59.8201 18.27 59.2601 15.86 57.4301 14.66C55.6001 13.47 53.1701 13.92 51.9001 15.7L42.0301 29.41H12.1001C11.9801 29.4 11.5901 29.37 11.3001 29.57C10.9701 29.8 10.9801 30.37 11.0001 30.6C11.7901 40 16.9201 48.31 24.7601 52.88C24.1401 54.07 23.6901 55.3 23.4201 56.54C23.3901 56.63 23.2601 57.13 23.4701 57.5C23.6701 57.86 24.0601 57.89 24.1101 57.9L44.6701 58.02H44.9201V55.82L25.9201 55.71C26.1901 54.92 26.5501 54.13 27.0001 53.36L44.6501 53.47H44.9001V51.27L26.1001 51.16C22.6201 49.19 19.6001 46.34 17.3901 42.93C15.2201 39.59 13.8101 35.69 13.2901 31.64H61.7001C61.1501 35.25 59.5901 38.72 58.3701 41.02L58.2201 41.29L60.4001 41.9L60.4901 41.72C61.9101 38.99 63.6701 34.85 64.0301 30.66C64.0401 30.61 64.1401 30.12 63.9601 29.79L64.0001 29.77ZM44.7501 29.41L53.7001 16.99C54.2801 16.17 55.4001 15.97 56.2301 16.51C57.0701 17.06 57.3301 18.16 56.8101 19.02L50.6201 29.41H44.7501Z" fill="#191919"></path>
<path d="M55.56 43.63C51.03 43.63 47.33 47.32 47.33 51.86C47.33 56.4 51.04 60.09 55.56 60.09C60.08 60.09 63.79 56.4 63.79 51.86C63.79 47.32 60.1 43.63 55.56 43.63ZM60.12 49.75L54.5 55.38C54.45 55.43 54.36 55.47 54.28 55.47C54.19 55.47 54.11 55.43 54.05 55.38L50.97 52.29C50.84 52.18 50.84 51.97 50.97 51.84L51.89 50.92C52 50.81 52.22 50.81 52.34 50.92L54.29 52.86L58.76 48.39C58.89 48.26 59.09 48.26 59.21 48.39L60.13 49.31C60.19 49.37 60.23 49.45 60.23 49.54C60.23 49.62 60.19 49.71 60.13 49.76L60.12 49.75Z" fill="#27BDBE"></path>
</g>
<defs>
<clipPath id="clip0_199_140">
<rect width="53.11" height="46.09" fill="white" transform="translate(11 14)"></rect>
</clipPath>
</defs>
</svg>