<svg width="75" height="75" viewBox="0 0 75 75" fill="none" xmlns="http://www.w3.org/2000/svg">
<g clip-path="url(#clip0_199_93)">
<path d="M51.49 51.97L53.86 57.08L58.9 57.36L55.33 60.96L56.07 66.07L51.49 63.36L46.91 66.07L47.65 60.96L44.08 57.36L49.12 57.08L51.49 51.97Z" fill="#27BDBE"></path>
<path d="M46.9099 66.82C46.7599 66.82 46.6199 66.78 46.4899 66.69C46.2499 66.53 46.1199 66.24 46.1699 65.96L46.8599 61.22L43.5499 57.88C43.3399 57.67 43.2799 57.36 43.3799 57.08C43.4899 56.8 43.74 56.62 44.04 56.6L48.63 56.35L50.81 51.65C51.06 51.12 51.9299 51.12 52.1699 51.65L54.3499 56.35L58.9399 56.6C59.2299 56.62 59.4899 56.8 59.5999 57.08C59.7099 57.36 59.6399 57.67 59.4299 57.88L56.1199 61.22L56.81 65.96C56.85 66.25 56.73 66.53 56.49 66.69C56.25 66.85 55.9399 66.86 55.6899 66.71L51.49 64.23L47.29 66.71C47.17 66.78 47.0399 66.81 46.9099 66.81V66.82ZM51.49 62.61C51.62 62.61 51.7499 62.65 51.8699 62.71L55.0999 64.62L54.58 61.06C54.55 60.83 54.62 60.59 54.79 60.42L57.1899 58L53.81 57.81C53.53 57.79 53.2899 57.63 53.1699 57.38L51.4799 53.74L49.79 57.38C49.67 57.63 49.43 57.8 49.15 57.81L45.7699 58L48.1699 60.42C48.3399 60.59 48.41 60.82 48.38 61.06L47.86 64.62L51.0899 62.71C51.2099 62.64 51.34 62.61 51.47 62.61H51.49Z" fill="#27BDBE"></path>
<path d="M42.35 34.48L42.18 34.44L41.01 33.59C40.03 34.95 37.97 37.22 35.24 37.22C30.61 37.22 26.86 30.6 26.86 26.28V22.14C26.86 21.82 26.99 14.23 35.24 14.23C43.49 14.23 43.62 21.82 43.62 22.14V26.28C43.62 26.95 43.53 27.69 43.36 28.46L45.02 28.84C45.22 27.95 45.33 27.09 45.33 26.29V22.15C45.33 22.05 45.21 12.54 35.25 12.54C25.29 12.54 25.17 22.06 25.17 22.15V26.29C25.17 28.84 26.32 32.1 28.21 34.67C20.65 36.69 15.25 44.35 15.25 53.27V63.71H16.95V53.27C16.95 44.81 22.19 37.6 29.41 36.1C31.04 37.78 33.03 38.91 35.24 38.91C37.45 38.91 39.43 37.86 41.23 35.96C41.47 36.01 41.61 36.04 41.61 36.04L41.91 36.12C47.77 37.68 52.3 43.35 53.18 50.23L54.87 50.02C53.89 42.34 48.98 36.24 42.35 34.49V34.48Z" fill="#191919"></path>
<path d="M17.2 63.96H15V53.27C15 44.39 20.24 36.73 27.79 34.52C26.01 31.98 24.91 28.85 24.91 26.28V22.14C24.91 22.04 25.03 12.28 35.24 12.28C45.45 12.28 45.57 22.04 45.57 22.14V26.28C45.57 27.1 45.47 27.98 45.26 28.89L45.2 29.13L43.05 28.64L43.11 28.4C43.28 27.65 43.37 26.94 43.37 26.28V22.14C43.37 21.83 43.23 14.48 35.24 14.48C27.25 14.48 27.11 21.83 27.11 22.15V26.28C27.11 30.5 30.75 36.97 35.24 36.97C37.85 36.97 39.85 34.76 40.81 33.44L40.96 33.24L42.29 34.21L42.41 34.24C49.14 36.03 54.12 42.2 55.11 49.98L55.14 50.23L52.96 50.51L52.93 50.26C52.07 43.48 47.61 37.89 41.84 36.36L41.54 36.28C41.54 36.28 41.45 36.26 41.31 36.23C39.46 38.15 37.36 39.16 35.24 39.16C33.12 39.16 31.13 38.2 29.32 36.37C22.28 37.9 17.19 44.98 17.19 53.27V63.96H17.2ZM15.5 63.46H16.7V53.27C16.7 44.7 22.02 37.38 29.36 35.86L29.49 35.83L29.59 35.93C31.33 37.72 33.28 38.67 35.24 38.67C37.2 38.67 39.27 37.67 41.05 35.79L41.15 35.69L41.29 35.72C41.54 35.77 41.68 35.8 41.68 35.8L41.98 35.88C47.87 37.44 52.44 43.08 53.4 49.95L54.59 49.8C53.55 42.34 48.75 36.44 42.29 34.72L42.04 34.64L41.07 33.94C40.01 35.35 37.95 37.47 35.25 37.47C30.49 37.47 26.62 30.7 26.62 26.28V22.14C26.62 21.81 26.77 13.98 35.25 13.98C43.73 13.98 43.88 21.81 43.88 22.14V26.28C43.88 26.9 43.81 27.57 43.66 28.27L44.83 28.54C44.99 27.75 45.08 27 45.08 26.29V22.15C45.08 22.06 44.94 12.79 35.25 12.79C25.56 12.79 25.42 22.06 25.42 22.15V26.29C25.42 28.82 26.59 32.06 28.41 34.53L28.63 34.82L28.28 34.91C20.75 36.92 15.5 44.48 15.5 53.27V63.46Z" fill="#191919"></path>
<path d="M22.65 30.82C23.12 30.82 23.5 30.44 23.5 29.97V21.69C23.5 15.22 28.77 9.95 35.24 9.95C41.71 9.95 46.6601 14.92 46.9501 21.13C46.9101 21.23 46.88 21.35 46.88 21.47V29.54C45.27 30.66 42.86 31.62 39.89 30.66C39.89 30.56 39.91 30.47 39.9 30.37C39.81 28.97 38.6001 27.91 37.1901 27.99C36.5101 28.03 35.89 28.34 35.43 28.85C34.98 29.36 34.76 30.02 34.8 30.7C34.84 31.38 35.15 32 35.66 32.45C36.13 32.86 36.72 33.09 37.34 33.09C37.4 33.09 37.45 33.09 37.51 33.09C38.21 33.04 38.82 32.72 39.25 32.24C40.29 32.59 41.32 32.77 42.33 32.77C44.31 32.77 46.24 32.1 48.03 30.8C50.7 30.63 52.82 28.44 52.82 25.73C52.82 23.22 51 21.15 48.62 20.72C48.13 13.76 42.32 8.25 35.24 8.25C28.16 8.25 22.36 13.75 21.85 20.7C19.42 21.09 17.55 23.18 17.55 25.72C17.55 28.53 19.84 30.82 22.65 30.82ZM38.21 30.48C38.24 30.95 37.88 31.36 37.41 31.39C37.18 31.42 36.9601 31.33 36.7901 31.18C36.6201 31.03 36.52 30.82 36.5 30.59C36.48 30.36 36.56 30.14 36.71 29.97C36.86 29.8 37.07 29.7 37.3 29.68C37.32 29.68 37.3401 29.68 37.3601 29.68C37.5701 29.68 37.77 29.75 37.92 29.89C38.09 30.04 38.19 30.25 38.21 30.48ZM51.14 25.72C51.14 27.3 50.05 28.64 48.59 29.01V22.42C50.06 22.8 51.14 24.13 51.14 25.71V25.72ZM21.8 22.42V29.01C20.33 28.63 19.25 27.3 19.25 25.72C19.25 24.14 20.34 22.8 21.8 22.43V22.42Z" fill="#191919"></path>
<path d="M37.35 33.34C36.67 33.34 36.01 33.09 35.5 32.64C34.94 32.14 34.6 31.46 34.55 30.71C34.5 29.96 34.75 29.24 35.24 28.68C35.74 28.12 36.42 27.78 37.17 27.73C38.71 27.63 40.05 28.82 40.15 30.35C40.15 30.39 40.15 30.43 40.15 30.48C42.93 31.31 45.19 30.38 46.63 29.41V21.47C46.63 21.34 46.6501 21.21 46.7001 21.09C46.3801 14.98 41.36 10.2 35.24 10.2C29.12 10.2 23.75 15.36 23.75 21.69V29.97C23.75 30.58 23.26 31.07 22.65 31.07C19.7 31.07 17.3 28.67 17.3 25.72C17.3 23.15 19.1 20.98 21.62 20.49C22.23 13.47 28.18 8 35.24 8C42.3 8 48.26 13.47 48.87 20.5C51.33 21.03 53.09 23.2 53.09 25.72C53.09 28.5 50.92 30.82 48.14 31.03C45.43 32.98 42.47 33.53 39.34 32.51C38.86 32.99 38.2301 33.28 37.5401 33.33C37.4801 33.33 37.4201 33.33 37.3601 33.33L37.35 33.34ZM37.33 28.23C37.33 28.23 37.25 28.23 37.21 28.23C36.6 28.27 36.04 28.55 35.63 29.01C35.22 29.47 35.02 30.07 35.06 30.68C35.1 31.29 35.38 31.86 35.84 32.26C36.3 32.66 36.9 32.86 37.51 32.83C38.11 32.79 38.67 32.52 39.08 32.06L39.1901 31.94L39.35 31.99C42.41 33.02 45.27 32.51 47.91 30.59L47.9701 30.55H48.0401C50.5901 30.39 52.59 28.27 52.59 25.73C52.59 23.38 50.91 21.38 48.59 20.97L48.4001 20.94V20.75C47.8901 13.89 42.11 8.52 35.24 8.52C28.37 8.52 22.6 13.87 22.1 20.72V20.92L21.89 20.95C19.52 21.33 17.8 23.33 17.8 25.72C17.8 28.39 19.98 30.57 22.65 30.57C22.98 30.57 23.25 30.3 23.25 29.97V21.69C23.25 15.08 28.63 9.7 35.24 9.7C41.85 9.7 46.9001 14.72 47.2001 21.12V21.18L47.18 21.23C47.15 21.31 47.1301 21.39 47.1301 21.47V29.67L47.0201 29.74C45.4601 30.83 42.94 31.91 39.81 30.89L39.63 30.83L39.65 30.55C39.65 30.49 39.65 30.43 39.65 30.37C39.57 29.16 38.54 28.22 37.32 28.22L37.33 28.23ZM37.32 31.64C37.08 31.64 36.8301 31.54 36.6201 31.36C36.4001 31.17 36.27 30.9 36.25 30.6C36.23 30.31 36.3301 30.02 36.5201 29.8C36.7101 29.58 36.9801 29.45 37.2801 29.43H37.35C37.62 29.43 37.88 29.52 38.08 29.7C38.3 29.89 38.4301 30.16 38.4501 30.46C38.4701 30.75 38.37 31.04 38.18 31.26C37.98 31.48 37.72 31.62 37.42 31.63C37.39 31.63 37.35 31.63 37.32 31.63V31.64ZM37.3601 29.93C37.1601 29.94 37.01 30.01 36.9 30.14C36.79 30.26 36.74 30.42 36.75 30.58C36.76 30.74 36.83 30.89 36.96 31C37.05 31.08 37.21 31.17 37.39 31.15C37.56 31.14 37.71 31.07 37.82 30.94C37.93 30.82 37.98 30.66 37.97 30.5C37.96 30.34 37.89 30.19 37.76 30.08C37.65 29.98 37.5101 29.93 37.3601 29.93ZM48.3301 29.34V22.1L48.64 22.18C50.25 22.6 51.3801 24.05 51.3801 25.72C51.3801 27.39 50.25 28.84 48.64 29.26L48.3301 29.34ZM48.8301 22.76V28.67C50.0501 28.21 50.8801 27.04 50.8801 25.72C50.8801 24.4 50.0501 23.22 48.8301 22.76ZM22.05 29.34L21.74 29.26C20.13 28.84 19 27.39 19 25.72C19 24.05 20.13 22.6 21.74 22.18L22.05 22.1V29.34ZM21.55 22.76C20.33 23.22 19.5 24.39 19.5 25.72C19.5 27.05 20.33 28.22 21.55 28.67V22.76Z" fill="#191919"></path>
</g>
<defs>
<clipPath id="clip0_199_93">
<rect width="44.65" height="58.82" fill="white" transform="translate(15 8)"></rect>
</clipPath>
</defs>
</svg>