<svg width="75" height="75" viewBox="0 0 75 75" fill="none" xmlns="http://www.w3.org/2000/svg">
<g clip-path="url(#clip0_199_83)">
<path d="M68.51 45.05L68.48 44.97C68.42 44.75 68.34 44.51 68.23 44.28L64.03 35.88C63.68 35.18 63.36 34.57 63.06 34.03V33.72H62.89C61.68 31.61 60.02 29.25 57.81 29.25H50.23V18.02C50.23 15.81 48.43 14 46.21 14H11.02C8.8 14 7 15.8 7 18.02V48.59C7 49.45 7.28 50.27 7.8 50.97C7.29 51.38 7 51.99 7 52.65C7 54.3 8.32 56.22 10.03 56.22H20.44C21.15 58.51 23.27 60.1 25.67 60.1C28.07 60.1 30.19 58.51 30.9 56.22H50.08C50.79 58.51 52.91 60.1 55.31 60.1C57.71 60.1 59.83 58.51 60.54 56.22H65.63C67.34 56.22 68.66 54.3 68.66 52.65V46.1C68.66 45.77 68.61 45.44 68.51 45.07V45.05ZM58.25 44.32C57.21 44.32 56.37 43.48 56.37 42.44V35.86H61.62C61.82 36.24 61.98 36.57 62.12 36.84L65.86 44.32H58.25ZM55.25 33.73H55V33.78C54.55 33.91 54.23 34.32 54.23 34.8V42.44C54.23 44.65 56.03 46.46 58.25 46.46H66.52V50.47H58.87C57.86 49.6 56.6 49.12 55.3 49.12C52.47 49.12 50.12 51.28 49.86 54.08H31.11C31.06 53.57 30.94 53.07 30.76 52.6H46.21C48.42 52.6 50.23 50.8 50.23 48.58V31.39H57.81C58.29 31.39 59.12 31.81 60.39 33.73H55.27H55.25ZM55.3 51.25C57.15 51.25 58.66 52.76 58.66 54.61C58.66 56.46 57.15 57.97 55.3 57.97C53.45 57.97 51.94 56.46 51.94 54.61C51.94 52.76 53.44 51.25 55.3 51.25ZM20.57 52.6C20.38 53.07 20.27 53.57 20.22 54.08H10.03C9.72 54.08 9.13 53.34 9.13 52.64L9.17 52.6H20.57ZM9.13 48.58V18.02C9.13 16.98 9.97 16.14 11.01 16.14H46.2C47.24 16.14 48.08 16.98 48.08 18.02V48.59C48.08 49.63 47.24 50.47 46.2 50.47H29.23C28.22 49.6 26.96 49.12 25.66 49.12C24.36 49.12 23.09 49.6 22.09 50.47H11.02C9.98 50.47 9.14 49.63 9.14 48.59L9.13 48.58ZM25.67 51.25C27.52 51.25 29.03 52.76 29.03 54.61C29.03 56.46 27.53 57.97 25.67 57.97C23.81 57.97 22.31 56.46 22.31 54.61C22.31 52.76 23.82 51.25 25.67 51.25ZM66.52 52.6V52.64C66.52 53.34 65.94 54.08 65.62 54.08H60.74C60.69 53.57 60.57 53.07 60.39 52.6H66.52Z" fill="#191919"></path>
<path d="M28.61 26.01C24.81 26.01 21.71 29.1 21.71 32.91C21.71 36.72 24.82 39.81 28.61 39.81C32.4 39.81 35.51 36.72 35.51 32.91C35.51 29.1 32.42 26.01 28.61 26.01ZM33.17 30.8L27.55 36.43C27.5 36.48 27.41 36.52 27.33 36.52C27.24 36.52 27.16 36.48 27.1 36.43L24.02 33.34C23.89 33.23 23.89 33.02 24.02 32.89L24.94 31.97C25.05 31.86 25.27 31.86 25.39 31.97L27.34 33.91L31.81 29.44C31.94 29.31 32.14 29.31 32.26 29.44L33.18 30.36C33.24 30.42 33.28 30.5 33.28 30.59C33.28 30.67 33.24 30.76 33.18 30.81L33.17 30.8Z" fill="#27BDBE"></path>
</g>
<defs>
<clipPath id="clip0_199_83">
<rect width="61.65" height="46.09" fill="white" transform="translate(7 14)"></rect>
</clipPath>
</defs>
</svg>