<svg width="75" height="75" viewBox="0 0 75 75" fill="none" xmlns="http://www.w3.org/2000/svg">
<g clip-path="url(#clip0_199_165)">
<path d="M64.62 22.91C63.91 21.79 62.7 21.13 61.38 21.13H20.74L19.34 16.02C19.01 14.83 18.13 13.85 17 13.42L16.88 13.37L6.47 13.01H6.07L6 15.4L16.29 15.72C16.65 15.91 16.92 16.25 17.03 16.65L26.69 51.81C27.08 53.22 28.23 54.28 29.63 54.58C28.98 55.37 28.63 56.36 28.63 57.39C28.63 59.83 30.59 61.82 33 61.82C35.41 61.82 37.37 59.83 37.37 57.39C37.37 56.39 37.04 55.45 36.45 54.67H46.03C45.43 55.44 45.11 56.39 45.11 57.39C45.11 59.83 47.07 61.82 49.48 61.82C51.89 61.82 53.85 59.83 53.85 57.39C53.85 56.39 53.52 55.45 52.93 54.67H55.3V52.26H30.43C29.77 52.26 29.18 51.81 29.01 51.16L27.91 47.15H53.51L53.58 47.14C54.11 47.06 54.34 46.75 55.87 44.73L56.11 44.42L54.29 43L54.04 43.31C53.48 44.01 53.3 44.27 53.18 44.44C53.1 44.54 53.06 44.6 52.94 44.75H27.24L21.41 23.52H61.39C61.9 23.52 62.35 23.77 62.63 24.2C62.91 24.63 62.95 25.16 62.73 25.66L60.68 30.64L62.88 31.57L64.93 26.61C65.46 25.4 65.35 24.01 64.64 22.9L64.62 22.91ZM47.49 57.41C47.49 56.3 48.38 55.39 49.48 55.39C50.58 55.39 51.47 56.3 51.47 57.41C51.47 58.52 50.58 59.43 49.48 59.43C48.38 59.43 47.49 58.52 47.49 57.41ZM31.01 57.41C31.01 56.3 31.9 55.39 33 55.39C34.1 55.39 34.99 56.3 34.99 57.41C34.99 58.52 34.1 59.43 33 59.43C31.9 59.43 31.01 58.52 31.01 57.41Z" fill="#191919"></path>
<path d="M68.97 41.1L65.67 41.87L68.32 47.68C68.44 47.94 68.32 48.24 68.06 48.36L64.02 50.19C63.76 50.31 63.46 50.19 63.34 49.93L60.69 44.13L57.93 46.12C57.59 46.36 57.12 46.12 57.12 45.7L57.25 31.12C57.25 30.68 57.76 30.45 58.1 30.73L69.19 40.2C69.51 40.47 69.38 41 68.97 41.1Z" fill="#27BDBE"></path>
</g>
<defs>
<clipPath id="clip0_199_165">
<rect width="63.37" height="48.83" fill="white" transform="translate(6 13)"></rect>
</clipPath>
</defs>
</svg>