<svg width="75" height="75" viewBox="0 0 75 75" fill="none" xmlns="http://www.w3.org/2000/svg">
<g clip-path="url(#clip0_199_252)">
<path d="M37.53 10C22.35 10 10 22.35 10 37.53C10 52.71 22.35 65.06 37.53 65.06C52.71 65.06 65.06 52.71 65.06 37.53C65.06 22.35 52.71 10 37.53 10ZM62.86 37.53C62.86 51.5 51.5 62.86 37.53 62.86C23.56 62.86 12.2 51.5 12.2 37.53C12.2 23.56 23.56 12.2 37.53 12.2C51.5 12.2 62.86 23.56 62.86 37.53Z" fill="#191919"></path>
<path d="M45.1801 42.61C39.9001 42.61 34.4701 38.51 32.8701 37.22C30.3401 38.78 27.8701 37.69 26.5901 36.63C25.1901 37.17 23.5501 37.06 22.4501 36.31C21.4501 35.62 20.9801 34.52 21.1401 33.2C21.3401 31.53 22.4101 29.91 24.2301 28.53C28.5001 25.3 36.5201 23.62 42.8701 24.63C48.2301 25.48 52.5601 28.69 53.6501 32.62C54.4501 35.52 53.3901 38.38 50.6601 40.67C48.9801 42.08 47.0901 42.62 45.1701 42.62L45.1801 42.61ZM32.9301 35.53C33.1101 35.53 33.2801 35.59 33.4301 35.72C33.5301 35.81 43.6701 44.59 49.7201 39.52C52.0101 37.6 52.8801 35.35 52.2301 33.02C51.3001 29.65 47.4501 26.87 42.6601 26.11C36.6601 25.16 29.1401 26.71 25.1601 29.72C23.6701 30.85 22.8001 32.11 22.6601 33.37C22.5701 34.13 22.7901 34.7 23.3301 35.07C24.1101 35.61 25.4101 35.61 26.4101 35.07C26.7001 34.92 27.0701 34.97 27.3001 35.21C27.4001 35.31 29.8201 37.7 32.5001 35.67C32.6301 35.57 32.7901 35.52 32.9501 35.52L32.9301 35.53Z" fill="#27BDBE"></path>
<path d="M26.4701 47.53L25.1301 46.85L27.4701 42.25L24.7301 36.08L26.1001 35.47L28.9801 41.96C29.0701 42.17 29.0601 42.4 28.9601 42.6L26.4601 47.52L26.4701 47.53Z" fill="#27BDBE"></path>
<path d="M31.56 49.9799L30.17 49.4099L32.12 44.6899L29.02 37.2699L30.4 36.6899L33.62 44.3999C33.7 44.5799 33.7 44.7899 33.62 44.9699L31.56 49.9799Z" fill="#27BDBE"></path>
<path d="M50.0901 52.11L37.4201 47.09C37.1601 46.99 36.9701 46.74 36.9501 46.46L36.3401 39.27L37.8301 39.14L38.4001 45.87L50.6401 50.72L50.0901 52.11Z" fill="#27BDBE"></path>
<path d="M24.1601 29.93C24.8301 32.91 26.7401 35.74 26.7401 35.74C26.7401 35.74 22.7401 36.56 22.2501 34.42C21.7601 32.28 24.1601 29.92 24.1601 29.92V29.93Z" fill="#27BDBE"></path>
<path d="M25.14 36.65C23.57 36.65 21.89 36.19 21.52 34.59C20.95 32.09 23.52 29.5 23.63 29.39C23.82 29.2 24.11 29.13 24.37 29.2C24.63 29.28 24.83 29.49 24.89 29.76C25.52 32.56 27.35 35.29 27.36 35.32C27.5 35.53 27.53 35.79 27.43 36.02C27.34 36.25 27.13 36.42 26.89 36.47C26.39 36.57 25.77 36.65 25.13 36.65H25.14ZM23.83 31.51C23.28 32.31 22.78 33.37 22.98 34.26C23.17 35.07 24.46 35.19 25.49 35.14C25 34.29 24.32 32.98 23.83 31.52V31.51Z" fill="#27BDBE"></path>
<path d="M34.5173 25.0816L32.1971 36.1204L33.6651 36.4289L35.9853 25.3901L34.5173 25.0816Z" fill="#27BDBE"></path>
</g>
<defs>
<clipPath id="clip0_199_252">
<rect width="55.06" height="55.06" fill="white" transform="translate(10 10)"></rect>
</clipPath>
</defs>
</svg>