<svg width="75" height="75" viewBox="0 0 75 75" fill="none" xmlns="http://www.w3.org/2000/svg">
<g clip-path="url(#clip0_199_320)">
<path d="M36.75 64.13L37.44 64.45L38.03 64.09C38.98 63.56 40.13 62.91 40.58 62.59C60.2 49.93 65.5 38.14 66.49 30.47C67.39 23.33 63.82 16.28 57.6 12.93C53.69 10.84 49.7 10.44 45.74 11.73C42.94 12.66 40.3 14.5 37.9 17.2L37.34 17.82L36.78 17.2C34.35 14.51 31.68 12.66 28.85 11.72C24.91 10.43 20.92 10.84 17 12.93C10.8 16.3 7.23997 23.35 8.13997 30.49C9.12997 38.15 14.42 49.93 33.99 62.56C34.55 62.94 35.84 63.64 36.76 64.13H36.75ZM37.35 62.02L36.98 61.82C36.03 61.3 35.47 60.98 35.17 60.77C16.28 48.58 11.2 37.43 10.27 30.22C9.47997 23.95 12.6 17.77 18.03 14.84C21.36 13.06 24.87 12.69 28.19 13.78C31.94 15.03 34.78 17.97 36.51 20.22L37.36 21.34L38.21 20.22C40.72 16.93 43.49 14.76 46.43 13.78C49.8 12.68 53.22 13.03 56.6 14.83C62.04 17.77 65.16 23.95 64.37 30.21C63.43 37.42 58.34 48.59 39.4 60.81C39.15 60.98 38.6 61.31 37.71 61.81L37.35 62.02Z" fill="black"></path>
<path d="M28.1201 35.66C28.0001 35.66 27.9301 35.76 27.9301 35.85V39.63C27.9301 39.72 28.0101 39.82 28.1201 39.82H35.2101V46.94C35.2101 47.03 35.3001 47.13 35.4201 47.13H39.1701C39.2901 47.13 39.3801 47.03 39.3801 46.94V39.82H46.5001C46.6001 39.82 46.6901 39.72 46.6901 39.63V35.85C46.6901 35.75 46.5901 35.66 46.5001 35.66H39.3801V28.54C39.3801 28.45 39.2901 28.35 39.1701 28.35H35.4201C35.3001 28.35 35.2101 28.45 35.2101 28.54V35.66H28.1201Z" fill="#27BDBE"></path>
</g>
<defs>
<clipPath id="clip0_199_320">
<rect width="58.64" height="53.46" fill="white" transform="translate(8 11)"></rect>
</clipPath>
</defs>
</svg>