<svg width="75" height="75" viewBox="0 0 75 75" fill="none" xmlns="http://www.w3.org/2000/svg">
<g clip-path="url(#clip0_199_277)">
<path d="M37.53 10C22.35 10 10 22.35 10 37.53C10 52.71 22.35 65.06 37.53 65.06C52.71 65.06 65.06 52.71 65.06 37.53C65.06 22.35 52.71 10 37.53 10ZM62.86 37.53C62.86 51.5 51.5 62.86 37.53 62.86C23.56 62.86 12.2 51.5 12.2 37.53C12.2 23.56 23.56 12.2 37.53 12.2C51.5 12.2 62.86 23.56 62.86 37.53Z" fill="#191919"></path>
<path d="M39.08 29.59V34.15C38.98 34.15 38.88 34.15 38.79 34.14H38.6C38.6 34.14 38.66 34.21 38.7 34.25C38.82 34.38 38.95 34.52 39.08 34.66V45.52C39.08 46.24 38.49 46.83 37.77 46.83C37.05 46.83 36.46 46.24 36.46 45.52V34.5C36.54 34.42 36.61 34.33 36.68 34.26C36.72 34.22 36.76 34.18 36.79 34.14H36.59C36.59 34.14 36.51 34.15 36.46 34.15V29.59C36.46 28.87 37.05 28.28 37.77 28.28C38.49 28.28 39.08 28.87 39.08 29.59Z" fill="#27BDBE"></path>
<path d="M38.55 27.68C38.31 27.58 38.05 27.53 37.77 27.53C37.52 27.53 37.27 27.58 37.05 27.66C36.27 27.95 35.71 28.7 35.71 29.59V34.17C35.98 34.17 36.23 34.15 36.46 34.15C36.51 34.15 36.55 34.14 36.59 34.14H36.79C36.79 34.14 36.72 34.22 36.68 34.26C36.61 34.33 36.54 34.42 36.46 34.5C36.23 34.74 35.98 35 35.71 35.28V45.52C35.71 46.66 36.63 47.58 37.77 47.58C38.91 47.58 39.83 46.66 39.83 45.52V35.43C39.56 35.16 39.31 34.9 39.08 34.66C38.95 34.52 38.82 34.38 38.7 34.25C38.66 34.21 38.63 34.17 38.6 34.14H38.79C38.88 34.15 38.98 34.15 39.08 34.15C39.32 34.16 39.57 34.17 39.83 34.18V29.59C39.83 28.73 39.3 27.99 38.55 27.68ZM38.33 45.52C38.33 45.83 38.08 46.08 37.77 46.08C37.46 46.08 37.21 45.83 37.21 45.52V29.59C37.21 29.28 37.46 29.03 37.77 29.03C38.08 29.03 38.33 29.28 38.33 29.59V45.52Z" fill="#27BDBE"></path>
<path d="M38.4679 23.4254L36.9681 23.4513L37.0493 28.1506L38.5491 28.1247L38.4679 23.4254Z" fill="#27BDBE"></path>
<path d="M48.9101 34.76C45.8701 33.82 42.2801 33.52 39.8301 33.42C39.6101 33.42 39.4001 33.42 39.2001 33.4H39.0801C38.8601 33.39 38.6501 33.39 38.4501 33.39H38.3301C38.1901 33.38 37.9301 33.38 37.5801 33.38C37.4401 33.38 37.3101 33.38 37.2101 33.39H36.9301C36.9301 33.39 37.0301 33.51 37.2101 33.72C37.3401 33.86 37.5001 34.04 37.6901 34.26C37.8401 34.43 38.0101 34.62 38.2001 34.82C38.2501 34.87 38.2901 34.91 38.3301 34.96C38.5601 35.2 38.8101 35.46 39.0801 35.74C39.3101 35.98 39.5601 36.23 39.8301 36.5C40.1101 36.78 40.4101 37.07 40.7301 37.37C42.1801 38.71 43.9201 40.16 45.7301 41.26C50.3901 44.09 54.0201 44.12 55.0901 41.77C56.1601 39.43 53.8001 36.27 48.9001 34.76H48.9101ZM54.4201 41.46C54.1701 42.01 53.7401 42.37 53.1201 42.56C51.5201 43.06 48.9701 42.34 46.1301 40.62C43.7401 39.16 41.4501 37.07 39.8301 35.43C39.5601 35.16 39.3101 34.9 39.0801 34.66C38.9501 34.52 38.8201 34.38 38.7001 34.25C38.6601 34.21 38.6301 34.17 38.6001 34.14H38.7901C38.8801 34.15 38.9801 34.15 39.0801 34.15C39.3201 34.16 39.5701 34.17 39.8301 34.18C42.2401 34.27 45.7501 34.58 48.6901 35.48C51.4901 36.34 53.6001 37.84 54.3401 39.48C54.6701 40.2 54.6901 40.86 54.4201 41.46Z" fill="white"></path>
<path d="M55.7101 38.87C54.7801 36.8 52.3801 35.04 49.1301 34.04C46.9401 33.36 44.4901 33.01 42.3701 32.82H42.3601C41.8401 32.78 41.3501 32.74 40.8901 32.72C40.5801 32.7 40.2901 32.69 40.0201 32.67H39.8301C39.7301 32.67 39.6401 32.67 39.5501 32.67C39.3901 32.66 39.2301 32.66 39.0801 32.66H39.0701L38.4801 32.65C38.4301 32.64 38.3801 32.64 38.3301 32.64H37.4901C37.3801 32.64 37.2901 32.64 37.2101 32.65H36.9101C36.7901 32.65 36.6801 32.69 36.5801 32.75C36.5401 32.76 36.5001 32.79 36.4601 32.83C36.3701 32.89 36.3001 32.98 36.2501 33.09C36.2001 33.19 36.1801 33.3 36.1801 33.41C36.1801 33.58 36.2401 33.74 36.3601 33.88C36.3701 33.89 36.4001 33.93 36.4601 34C36.4901 34.04 36.5401 34.09 36.5901 34.15H36.7901C36.7901 34.15 36.7201 34.23 36.6801 34.27C36.8201 34.41 36.9801 34.6 37.1801 34.82C37.1801 34.83 37.1901 34.84 37.2101 34.85C37.3501 35.01 37.5101 35.19 37.6901 35.39C37.8901 35.6 38.1001 35.82 38.3301 36.06C38.5601 36.3 38.8101 36.56 39.0801 36.82C39.1301 36.87 39.1701 36.91 39.2101 36.95C39.4101 37.15 39.6101 37.35 39.8301 37.55C40.6001 38.29 41.4601 39.06 42.3901 39.8C43.3201 40.56 44.3201 41.28 45.3501 41.91C47.8501 43.43 50.1601 44.22 52.0101 44.22C52.5701 44.22 53.0901 44.15 53.5601 44.01C54.5901 43.69 55.3501 43.03 55.7801 42.09C56.2301 41.1 56.2101 39.99 55.7101 38.88V38.87ZM53.1201 42.56C51.5201 43.06 48.9701 42.34 46.1301 40.62C43.7401 39.16 41.4501 37.07 39.8301 35.43C39.5601 35.16 39.3101 34.9 39.0801 34.66C38.9501 34.52 38.8201 34.38 38.7001 34.25C38.6601 34.21 38.6301 34.17 38.6001 34.14H38.7901C38.8801 34.15 38.9801 34.15 39.0801 34.15C39.3201 34.16 39.5701 34.17 39.8301 34.18C42.2401 34.27 45.7501 34.58 48.6901 35.48C51.4901 36.34 53.6001 37.84 54.3401 39.48C54.6701 40.2 54.6901 40.86 54.4201 41.46C54.1701 42.01 53.7401 42.37 53.1201 42.56Z" fill="#27BDBE"></path>
<path d="M48.4742 21.7724L39.2064 32.3589L40.335 33.3469L49.6028 22.7604L48.4742 21.7724Z" fill="#27BDBE"></path>
<path d="M52.44 28.6593L39.8285 31.9349L40.2056 33.3868L52.8171 30.1111L52.44 28.6593Z" fill="#27BDBE"></path>
<path d="M44.7601 54.35L44.6101 45.74L38.8201 37.2L40.0601 36.36L45.9701 45.08C46.0501 45.2 46.1001 45.34 46.1001 45.49L46.2601 54.32L44.7601 54.35Z" fill="#27BDBE"></path>
<path d="M37.72 32.24C38.8522 32.24 39.77 31.3222 39.77 30.19C39.77 29.0578 38.8522 28.14 37.72 28.14C36.5879 28.14 35.67 29.0578 35.67 30.19C35.67 31.3222 36.5879 32.24 37.72 32.24Z" fill="#27BDBE"></path>
<path d="M37.72 32.99C36.18 32.99 34.92 31.73 34.92 30.19C34.92 28.65 36.18 27.39 37.72 27.39C39.26 27.39 40.52 28.65 40.52 30.19C40.52 31.73 39.26 32.99 37.72 32.99ZM37.72 28.89C37 28.89 36.42 29.47 36.42 30.19C36.42 30.91 37 31.49 37.72 31.49C38.44 31.49 39.02 30.91 39.02 30.19C39.02 29.47 38.44 28.89 37.72 28.89Z" fill="#27BDBE"></path>
<path d="M38.33 33.39C38.19 33.38 37.93 33.38 37.58 33.38H37.21C37.12 33.38 37.03 33.38 36.93 33.39H36.46C36.37 33.39 36.28 33.4 36.18 33.4C36.03 33.4 35.87 33.41 35.71 33.42C33.26 33.5 29.58 33.8 26.48 34.76C21.58 36.27 19.22 39.43 20.29 41.77C21.36 44.12 24.98 44.09 29.64 41.26C31.45 40.16 33.19 38.71 34.64 37.36C34.96 37.07 35.26 36.78 35.54 36.51C35.6 36.45 35.66 36.39 35.71 36.34C35.98 36.07 36.23 35.82 36.46 35.58C36.72 35.31 36.97 35.05 37.18 34.81C37.19 34.8 37.2 34.8 37.21 34.79C37.38 34.6 37.55 34.42 37.69 34.26C37.99 33.93 38.21 33.67 38.33 33.53C38.41 33.44 38.45 33.39 38.45 33.39H38.33ZM36.46 34.5C36.23 34.74 35.98 35 35.71 35.28C34.08 36.93 31.72 39.11 29.26 40.62C26.41 42.34 23.87 43.06 22.27 42.56C21.64 42.37 21.22 42.01 20.97 41.46C20.7 40.86 20.72 40.2 21.04 39.48C21.78 37.84 23.9 36.34 26.7 35.48C29.69 34.56 33.3 34.26 35.71 34.17C35.98 34.17 36.23 34.15 36.46 34.15C36.51 34.15 36.55 34.14 36.59 34.14H36.79C36.79 34.14 36.72 34.22 36.68 34.26C36.61 34.33 36.54 34.42 36.46 34.5Z" fill="white"></path>
<path d="M39.14 33.08C39.14 33.08 39.1 33.01 39.08 32.98C39.02 32.88 38.94 32.81 38.84 32.76C38.73 32.68 38.61 32.64 38.48 32.64H38.33C38.23 32.64 38.08 32.63 37.89 32.63H37.21C37.11 32.63 37.01 32.63 36.91 32.64H36.38C36.2 32.65 36.03 32.65 35.83 32.66H35.71C35.6 32.66 35.48 32.66 35.36 32.66C35.09 32.68 34.8 32.69 34.49 32.71C34.03 32.73 33.54 32.77 33.03 32.81C30.9 33 28.46 33.35 26.27 34.03C23.01 35.03 20.61 36.79 19.68 38.86C19.19 39.97 19.16 41.08 19.61 42.07C20.04 43.01 20.81 43.67 21.84 43.99C22.31 44.13 22.83 44.2 23.38 44.2C25.24 44.2 27.54 43.41 30.04 41.89C31.07 41.26 32.07 40.54 33 39.78H33.01C34 38.98 34.91 38.16 35.72 37.37C35.88 37.22 36.03 37.07 36.18 36.93C36.29 36.84 36.38 36.74 36.47 36.64C36.74 36.37 36.99 36.12 37.22 35.88C37.39 35.7 37.55 35.53 37.7 35.37C37.89 35.17 38.06 34.98 38.21 34.81C38.26 34.76 38.3 34.71 38.34 34.67C38.49 34.5 38.61 34.35 38.71 34.24C38.67 34.2 38.64 34.16 38.61 34.13H38.8C38.94 33.98 39.02 33.88 39.04 33.86C39.06 33.83 39.08 33.81 39.09 33.78C39.17 33.66 39.21 33.53 39.21 33.39C39.21 33.28 39.19 33.17 39.15 33.07L39.14 33.08ZM36.46 34.5C36.23 34.74 35.98 35 35.71 35.28C34.08 36.93 31.72 39.11 29.26 40.62C26.41 42.34 23.87 43.06 22.27 42.56C21.64 42.37 21.22 42.01 20.97 41.46C20.7 40.86 20.72 40.2 21.04 39.48C21.78 37.84 23.9 36.34 26.7 35.48C29.69 34.56 33.3 34.26 35.71 34.17C35.98 34.17 36.23 34.15 36.46 34.15C36.51 34.15 36.55 34.14 36.59 34.14H36.79C36.79 34.14 36.72 34.22 36.68 34.26C36.61 34.33 36.54 34.42 36.46 34.5Z" fill="#27BDBE"></path>
<path d="M26.8885 21.7665L25.7604 22.7551L35.0337 33.3368L36.1618 32.3481L26.8885 21.7665Z" fill="#27BDBE"></path>
<path d="M22.9338 28.6611L22.5575 30.1132L35.1707 33.3822L35.5471 31.9302L22.9338 28.6611Z" fill="#27BDBE"></path>
<path d="M30.62 54.35L29.12 54.32L29.28 45.49C29.28 45.34 29.33 45.2 29.41 45.08L35.32 36.36L36.56 37.2L30.77 45.74L30.62 54.35Z" fill="#27BDBE"></path>
</g>
<defs>
<clipPath id="clip0_199_277">
<rect width="55.06" height="55.06" fill="white" transform="translate(10 10)"></rect>
</clipPath>
</defs>
</svg>