<svg width="75" height="75" viewBox="0 0 75 75" fill="none" xmlns="http://www.w3.org/2000/svg">
<g clip-path="url(#clip0_199_241)">
<path d="M51.6 48.88H51.39C51.39 48.88 51.36 48.88 51.35 48.88C46.22 49 42.09 53.22 42.09 58.37C42.09 63.52 46.35 67.87 51.59 67.87C54.41 67.87 56.96 66.63 58.69 64.66C58.69 64.66 58.69 64.64 58.69 64.63C60.16 62.96 61.06 60.76 61.06 58.37C61.06 53.14 56.8 48.87 51.56 48.87L51.6 48.88ZM51.6 66.34C47.21 66.34 43.64 62.77 43.64 58.38C43.64 54.32 46.69 50.95 50.63 50.47V58.18C50.63 58.4 50.72 58.61 50.89 58.75L57.05 64.2C55.62 65.53 53.71 66.34 51.61 66.34H51.6Z" fill="#27BDBE"></path>
<path d="M41.24 62.17C41.24 62.17 39.95 62.17 39.92 62.17C36.49 62.29 33.71 61.33 31.64 59.33C29.14 56.91 28.24 53.5 28.24 51.11V48.46C28.24 48.46 28.3 48.41 28.33 48.37L36.88 37.2C38.55 35.44 39.68 33.26 40.23 30.71C40.49 29.61 40.62 28.52 40.62 27.46C40.62 27.43 40.62 27.39 40.62 27.34V27.23C40.62 27.18 40.62 27.13 40.62 27.08V13.42C40.62 10.23 38.31 7.92 35.12 7.92H34.01C33.66 7.35 33.05 7 32.37 7C31.3 7 30.44 7.87 30.44 8.93C30.44 9.99 31.31 10.86 32.37 10.86C32.94 10.86 33.47 10.61 33.83 10.18H35.17C36.95 10.18 38.4 11.63 38.4 13.41V27.07C38.4 29.89 37.46 32.54 35.69 34.72C33.56 37.24 30.49 38.69 27.29 38.69C24.38 38.69 21.62 37.52 19.53 35.41C17.4 33.14 16.23 30.18 16.23 27.07V13.42C16.23 11.64 17.68 10.19 19.46 10.19H20.75C21.12 10.62 21.65 10.87 22.21 10.87C23.28 10.87 24.14 10 24.14 8.94C24.14 7.88 23.27 7.01 22.21 7.01C21.64 7.01 21.11 7.26 20.75 7.69H19.7C16.57 7.68 14 10.25 14 13.42V27.08C14 27.08 14 27.16 14 27.21V27.37C14 28.09 14.06 28.83 14.19 29.65L14.23 29.95C14.25 30.08 14.28 30.2 14.32 30.37C14.86 33.05 16.02 35.34 17.76 37.18L26.07 48.04V50.98C26.07 53.81 27.16 57.92 30.23 60.99C32.62 63.38 35.65 64.44 40.26 64.44C40.6 64.44 40.94 64.44 41.3 64.42H41.55L41.47 62.19H41.24V62.17ZM32.18 40.1L27.34 46.17L22.46 40.07C25.56 41.32 29.08 41.32 32.18 40.09V40.1Z" fill="#191919"></path>
<path d="M53.28 19.47C49.5 19.47 46.42 22.55 46.42 26.33C46.42 29.73 48.91 32.6 52.25 33.11V47.31L54.31 47.34V33.12C57.65 32.62 60.14 29.74 60.14 26.34C60.14 22.56 57.06 19.48 53.28 19.48V19.47ZM58.19 26.32C58.19 29.03 55.99 31.23 53.28 31.23C50.57 31.23 48.37 29.03 48.37 26.32C48.37 23.61 50.57 21.41 53.28 21.41C55.99 21.41 58.19 23.61 58.19 26.32Z" fill="#191919"></path>
<path d="M53.28 28.36C54.3459 28.36 55.21 27.4959 55.21 26.43C55.21 25.3641 54.3459 24.5 53.28 24.5C52.2141 24.5 51.35 25.3641 51.35 26.43C51.35 27.4959 52.2141 28.36 53.28 28.36Z" fill="#191919"></path>
</g>
<defs>
<clipPath id="clip0_199_241">
<rect width="47.1" height="60.88" fill="white" transform="translate(14 7)"></rect>
</clipPath>
</defs>
</svg>