<svg width="75" height="75" viewBox="0 0 75 75" fill="none" xmlns="http://www.w3.org/2000/svg">
<g clip-path="url(#clip0_199_155)">
<path d="M43.48 24.75V15.27C43.48 12.36 41.11 10 38.21 10H20.28C17.37 10 15 12.37 15 15.27V59.57C15 62.48 17.37 64.85 20.28 64.85H38.21C41.12 64.85 43.48 62.48 43.48 59.57V48.17H41.37V54.71H17.11V16.51H41.37V24.75H43.48ZM17.24 14.4C17.63 13.06 18.86 12.12 20.27 12.12H38.2C39.62 12.12 40.85 13.06 41.23 14.4H17.24ZM17.11 59.58V56.83H41.37V59.58C41.37 61.32 39.95 62.74 38.21 62.74H20.28C18.54 62.74 17.12 61.32 17.12 59.58H17.11Z" fill="#191919"></path>
<path d="M31.69 58.98H26.79V61.09H31.69V58.98Z" fill="#191919"></path>
<path d="M50.47 26.33H29.46C28.39 26.33 27.56 26.66 27 27.3C26.26 28.15 26.3 29.21 26.33 29.5V43.72C26.3 44.01 26.23 45.03 26.88 45.79C27.19 46.16 27.78 46.6 28.82 46.6H49.83C52.56 46.6 53.28 44.76 53.28 43.79V29.77C53.25 27.05 51.43 26.33 50.47 26.33ZM40.92 37.42C39.75 38.59 38.65 37.69 38.34 37.39L28.48 28.37C28.7 28.21 29.02 28.12 29.46 28.12H50.47C50.47 28.12 50.82 28.12 51.1 28.46L40.92 37.41V37.42ZM51.48 30.52V43.76C51.48 44 51.33 44.79 49.83 44.79H28.82C28.54 44.79 28.35 44.73 28.25 44.62C28.1 44.44 28.09 44.07 28.11 43.9V30.48L37.09 38.68C37.63 39.22 38.6 39.79 39.71 39.79C40.61 39.79 41.43 39.43 42.14 38.72L51.47 30.51L51.48 30.52Z" fill="#27BDBE"></path>
<path d="M52.3901 19.75H50.5801V24.31H52.3901V19.75Z" fill="#27BDBE"></path>
<path d="M60.0201 29.18H55.4601V30.99H60.0201V29.18Z" fill="#27BDBE"></path>
<path d="M57.6964 22.8924L54.0778 25.6671L55.1791 27.1035L58.7978 24.3288L57.6964 22.8924Z" fill="#27BDBE"></path>
</g>
<defs>
<clipPath id="clip0_199_155">
<rect width="45.01" height="54.85" fill="white" transform="translate(15 10)"></rect>
</clipPath>
</defs>
</svg>