<svg width="75" height="75" viewBox="0 0 75 75" fill="none" xmlns="http://www.w3.org/2000/svg">
<g clip-path="url(#clip0_199_113)">
<path d="M71.0801 40.99L62.4901 22.57C62.3401 22.12 62.0301 21.86 61.6301 21.84C61.3501 21.72 60.9601 21.73 60.5601 21.86L53.5901 25.12H53.4301C48.1901 25.6 44.4601 26.2 42.3401 26.91C38.4801 25.47 35.0101 25 32.0301 25.51C28.0201 26.2 22.0001 25.53 21.4001 25.14L14.5001 21.86C14.2101 21.72 13.8101 21.71 13.3701 21.86C13.2701 21.91 12.7601 22.18 12.5801 22.54L4.10006 40.99C3.97006 41.32 3.96006 41.7 4.08006 42.03C4.21006 42.38 4.47006 42.65 4.79006 42.78L11.7701 46.05C12.1101 46.33 15.8601 49.38 19.8001 51.2C19.8201 51.96 19.9801 52.58 20.2801 53.07C21.0601 54.62 22.8901 55.51 24.5601 55.19C24.6001 55.75 24.7601 56.23 25.0301 56.57C25.5401 57.59 26.4001 58.28 27.4501 58.51C28.2401 58.74 29.0601 58.73 29.7801 58.51C29.8401 58.89 29.9801 59.24 30.1301 59.6L30.2401 59.87C30.9601 61.19 32.3801 62.04 33.8501 62.04C34.4501 62.04 35.0501 61.92 35.6401 61.68C35.7501 61.64 35.9701 61.55 36.2901 61.42C49.7801 56.21 59.1901 50.89 63.5201 46.04L70.4901 42.78C71.0701 42.49 71.3301 41.67 71.0601 40.99H71.0801ZM32.3501 58.85C32.1801 58.59 32.1401 57.93 32.2401 57.64C32.3101 57.42 33.1301 56.65 33.6001 56.42L39.7801 53.05L38.7201 50.94L29.3701 55.91C29.1101 56.09 28.2801 56.16 28.0101 56.07C27.6701 55.96 27.2401 55.71 27.0501 55.33C26.8801 55.08 26.8401 54.38 26.9401 54.08C27.0301 53.8 27.3801 53.38 27.7701 53.18L35.9001 48.88L34.8701 46.76L24.4801 52.3C24.1101 52.46 23.7001 52.47 23.3701 52.34C23.1001 52.23 22.8901 52.03 22.7701 51.75C22.5101 51.15 22.6201 50.34 23.3401 50.03L34.5301 44.15L33.4901 42.07L25.1801 46.17C24.4901 46.47 23.2601 46.27 22.8901 45.65C22.6601 45.26 22.7101 44.87 22.7901 44.61C22.9501 44.12 23.3501 43.68 23.8701 43.44L29.2901 40.9C32.5401 40.49 35.6701 38.63 38.3501 35.52C45.8301 38.33 52.3901 36.5 53.6501 33.98C54.0901 33.11 54.0301 31.76 52.4201 30.82L52.3501 30.79C52.2501 30.76 51.5601 30.46 50.7601 30.1C49.6801 29.62 48.1301 28.94 46.5201 28.26C48.9501 27.87 51.9301 27.49 53.2301 27.37L61.2701 44.55C54.8601 51.13 39.4601 57.52 34.8701 59.33C34.7101 59.39 34.6101 59.43 34.5701 59.45C33.8701 59.75 32.6301 59.52 32.3401 58.86L32.3501 58.85ZM49.7201 34.15C49.6201 34.18 49.5201 34.22 49.4401 34.25C46.7501 35.27 42.7201 34.79 38.4001 32.92C38.1301 32.78 37.7501 32.8 37.3701 32.96C37.0201 33.11 36.7301 33.36 36.5901 33.63V33.65C36.3701 33.95 31.8401 40.14 25.5301 38.52C25.4901 38.52 25.2201 38.48 23.6301 37.95H23.2501L22.5301 40.2H22.9401C23.4301 40.38 23.8201 40.5 24.1301 40.58L22.5301 41.42C20.5501 42.54 19.7901 44.97 20.8501 46.84C21.0001 47.14 21.2501 47.55 21.6401 47.92C21.2001 48.19 20.7601 48.61 20.5201 48.91C18.2501 47.82 15.8901 45.84 14.4601 44.64C14.3001 44.51 14.1601 44.39 14.0301 44.28L21.7901 27.76C24.6701 28.07 29.8101 28.46 33.2301 27.74C36.7401 26.98 50.6301 31.73 50.9901 32.81C50.9901 33.63 50.4401 33.88 49.7101 34.13L49.7201 34.15ZM19.5601 26.75L11.8501 43.43L6.67006 40.97L14.3801 24.29L19.5601 26.75ZM68.3701 40.86L63.3101 43.27L55.6301 26.88L60.6901 24.47L68.3701 40.86Z" fill="#191919"></path>
<path d="M38.4401 12H36.4401V19.48H38.4401V12Z" fill="#27BDBE"></path>
<path d="M48.0599 14.5072L43.5698 20.4896L45.1694 21.6902L49.6595 15.7078L48.0599 14.5072Z" fill="#27BDBE"></path>
<path d="M27.1213 14.5004L25.5217 15.7009L30.0118 21.6834L31.6114 20.4828L27.1213 14.5004Z" fill="#27BDBE"></path>
</g>
<defs>
<clipPath id="clip0_199_113">
<rect width="67.19" height="50.04" fill="white" transform="translate(4 12)"></rect>
</clipPath>
</defs>
</svg>