<svg width="75" height="75" viewBox="0 0 75 75" fill="none" xmlns="http://www.w3.org/2000/svg">
<g clip-path="url(#clip0_199_227)">
<path d="M61.55 29.09L61.38 28.62L58.84 29.54L59.01 30.01C59.94 32.57 60.42 35.26 60.42 38.01C60.42 50.89 49.94 61.37 37.06 61.37C24.18 61.37 13.7 50.9 13.7 38.02C13.7 25.14 24.18 14.66 37.06 14.66C39.98 14.66 42.83 15.19 45.53 16.24L46 16.42L46.98 13.91L46.51 13.73C43.5 12.56 40.32 11.97 37.06 11.97C22.69 11.96 11 23.65 11 38.02C11 52.39 22.69 64.08 37.06 64.08C51.43 64.08 63.12 52.39 63.12 38.02C63.12 34.95 62.59 31.95 61.55 29.09Z" fill="#191919"></path>
<path d="M38.98 55.55V51.4C42.73 50.7 44.96 48.04 44.96 44.26C44.96 39.39 41.57 37.75 38.29 36.16C35.8 34.96 33.45 33.83 33.45 31.25C33.45 29.07 35.14 27.54 37.57 27.54C39.59 27.54 40.77 28.28 42.14 29.56L42.51 29.91L44.48 27.71L44.15 27.38C43.06 26.27 41.48 24.95 38.97 24.59V20.5H35.66V24.65C32.2 25.34 30.06 27.94 30.06 31.47C30.06 35.69 33.39 37.33 36.32 38.78C38.93 40.06 41.63 41.39 41.63 44.44C41.63 46.91 39.82 48.51 37.01 48.51C35.05 48.51 33.13 47.73 31.13 46.11L30.71 45.77L28.99 48.3L29.32 48.59C31.02 50.09 33.39 51.17 35.66 51.48V55.55H38.97H38.98Z" fill="#191919"></path>
<path d="M57 11C52.69 11 49.15 14.52 49.15 18.85C49.15 23.18 52.68 26.7 57 26.7C61.32 26.7 64.85 23.18 64.85 18.85C64.85 14.52 61.33 11 57 11ZM61.56 16.73L55.94 22.36C55.89 22.41 55.8 22.45 55.72 22.45C55.63 22.45 55.55 22.41 55.49 22.36L52.41 19.27C52.28 19.16 52.28 18.95 52.41 18.82L53.33 17.9C53.44 17.79 53.66 17.79 53.78 17.9L55.73 19.84L60.2 15.37C60.33 15.24 60.53 15.24 60.65 15.37L61.57 16.29C61.63 16.35 61.67 16.43 61.67 16.52C61.67 16.6 61.63 16.69 61.57 16.74L61.56 16.73Z" fill="#27BDBE"></path>
</g>
<defs>
<clipPath id="clip0_199_227">
<rect width="53.85" height="53.08" fill="white" transform="translate(11 11)"></rect>
</clipPath>
</defs>
</svg>