<svg width="75" height="75" viewBox="0 0 75 75" fill="none" xmlns="http://www.w3.org/2000/svg">
<g clip-path="url(#clip0_199_105)">
<path d="M70.57 39.36C70.35 39.05 69.97 38.86 69.58 38.9C69.37 38.92 64.3 39.25 61.2 35.93C60.49 35.16 59.83 34.19 59.14 33.16C56.95 29.92 54.21 25.88 47.82 25.53L28.18 24.96C27.81 23.16 26.82 19.09 24.97 16.02C23.34 13.31 20.48 10.19 18.93 8.58003C18.41 8.04003 17.62 7.86003 16.92 8.13003C16.21 8.40003 15.74 9.06003 15.71 9.81003L15.55 14.03C13.56 14.69 12.56 16.01 12.07 17.02C11.73 17.72 11.06 18.24 10.24 18.46L7.45002 19.19C6.01002 19.62 5.07002 20.78 5.00002 22.22C4.93002 23.88 6.06002 25.41 7.88002 26.13C10.15 27 13.46 27.94 13.49 27.94C13.66 27.99 13.98 28.14 14.18 28.53C14.41 28.98 14.39 29.62 14.12 30.39C14.07 30.56 12.82 34.65 14.5 38.57C15.45 40.73 16.94 41.92 18.25 42.98C19.73 44.17 20.71 44.96 20.71 46.73V57.97C20.71 59.7 22.12 61.11 23.85 61.11C25.03 61.11 26.03 60.26 26.22 59.09L28.23 46.77C30.54 46.65 33.44 45.99 34.97 45.41L35.2 45.32L34.42 43.27L34.19 43.36C32.96 43.83 30.59 44.38 28.6 44.55L29.33 40.1L27.16 39.75L24.06 58.75C24.04 58.85 23.96 58.92 23.86 58.92C23.34 58.92 22.92 58.5 22.92 57.98V46.74C22.92 43.91 21.25 42.57 19.63 41.27C18.46 40.33 17.25 39.36 16.52 37.71C15.2 34.63 16.17 31.23 16.21 31.1C16.79 29.43 16.49 28.25 16.14 27.55C15.73 26.74 14.99 26.12 14.11 25.84C14.08 25.84 10.82 24.91 8.68002 24.09C7.55002 23.64 7.18002 22.86 7.20002 22.33C7.22002 21.84 7.53002 21.48 8.04002 21.33L10.79 20.61C12.24 20.23 13.42 19.28 14.04 18.01C14.56 16.94 15.5 16.26 16.83 15.98C17.33 15.88 17.69 15.45 17.71 14.94L17.87 10.68C19.38 12.28 21.72 14.91 23.08 17.17C25.23 20.75 26.16 26.18 26.17 26.24C26.26 26.76 26.7 27.14 27.22 27.16L47.71 27.75C52.99 28.04 55.18 31.28 57.3 34.42C58.04 35.52 58.74 36.56 59.57 37.45C61.96 40.01 65.16 40.8 67.22 41.04C66.49 41.48 65.39 41.85 63.83 41.76C58.42 41.4 55.28 35.44 55.25 35.38C55 34.89 54.41 34.65 53.89 34.85C53.37 35.04 53.07 35.59 53.19 36.13C53.2 36.18 54.32 41.24 52.29 45.76L52.19 45.99L54.19 46.91L54.29 46.68C55.4 44.22 55.7 41.68 55.72 39.79C57.44 41.66 60.11 43.72 63.68 43.95C68.89 44.32 70.59 40.62 70.66 40.46C70.82 40.11 70.78 39.69 70.55 39.38L70.57 39.36Z" fill="#191919"></path>
<path d="M65.58 51.36C64.75 50.44 64.21 49.52 64.02 48.69C63.78 47.66 62.89 46.91 61.81 46.83C61.06 46.78 60.34 47.07 59.85 47.64C59.36 48.21 59.17 48.96 59.33 49.7C59.7 51.37 60.61 53.01 62.02 54.57C62.94 55.59 63.07 58.44 62.62 59.45C62.46 59.81 62.22 60.12 61.89 60.39C61.72 58.99 61.24 56.91 59.88 54.67C58.15 51.8 55.47 49.44 51.92 47.64C50.17 46.75 49.3 44.29 48.53 42.13L48.49 42.03C48.36 41.65 48.22 41.28 48.09 40.93C47.22 38.62 44.36 35.08 42.59 35.08C42.53 35.08 42.47 35.08 42.41 35.09C42.08 35.14 41.79 35.32 41.58 35.61C41.06 36.33 41.1 37.79 41.24 38.91C39.68 39.74 38.88 40.56 38.35 43.13C38.33 43.24 38.15 43.54 37.2 44.38C37.06 44.5 36.95 44.61 36.88 44.67C36.69 44.87 36.6 45.15 36.65 45.42C36.67 45.5 37.03 47.37 38.46 48.45C39.51 49.25 40.74 49.29 41.41 49.23C41.59 49.45 41.86 49.95 41.9 51.01C41.54 53.42 42.22 54.74 42.71 55.7C42.95 56.17 43.12 56.51 43.11 56.84C43.11 57.08 42.94 58.22 41.15 62.52C40.61 63.81 41.08 65.08 42.29 65.59C42.57 65.71 42.89 65.77 43.23 65.77C44.31 65.77 45.3 65.1 45.75 64.05C45.86 63.8 46.09 63.32 46.38 62.72L46.43 62.61C47.05 61.33 47.89 59.59 48.35 58.42C49.6 58.54 50.62 59.46 50.86 60.67C50.93 61.02 51.02 61.37 51.14 61.72H49.17C47.98 61.72 47.02 62.68 47.02 63.87C47.02 65.06 47.98 66.02 49.17 66.02H60.24C63.36 66.02 65.64 64.46 67.01 61.38C68.17 58.76 67.8 53.8 65.58 51.34V51.36ZM53.15 63.01C53.3 62.75 53.3 62.42 53.15 62.16C53.15 62.16 52.72 61.39 52.52 60.36C52.08 58.1 50.01 56.53 47.68 56.73C47.34 56.76 47.05 56.99 46.94 57.31C46.61 58.32 45.57 60.46 44.89 61.87C44.56 62.56 44.3 63.1 44.18 63.38C44 63.79 43.62 64.07 43.22 64.07C43.11 64.07 43.02 64.05 42.95 64.02C42.83 63.97 42.45 63.8 42.71 63.17C44.07 59.9 44.78 57.78 44.8 56.88C44.82 56.11 44.51 55.5 44.21 54.91C43.78 54.06 43.28 53.1 43.58 51.19C43.58 51.14 43.59 51.09 43.58 51.04C43.53 48.26 42.12 47.61 41.96 47.54C41.8 47.47 41.62 47.46 41.46 47.5C41.34 47.52 40.29 47.7 39.48 47.08C38.9 46.64 38.58 45.94 38.44 45.53C39.12 44.92 39.85 44.21 40.01 43.46C40.48 41.23 40.95 40.91 42.54 40.14C42.87 39.98 43.07 39.61 43.01 39.24C42.87 38.37 42.83 37.4 42.9 36.87C43.79 37.39 45.74 39.44 46.52 41.5C46.66 41.87 46.79 42.25 46.94 42.67C47.81 45.14 48.8 47.94 51.17 49.13C60.58 53.9 60.3 61.4 60.28 61.72C60.26 62.01 60.39 62.28 60.62 62.45C60.85 62.62 61.15 62.66 61.42 62.57C62.71 62.1 63.7 61.23 64.19 60.12C64.86 58.61 64.73 55 63.3 53.41C62.09 52.06 61.32 50.68 61.01 49.31C60.96 49.1 61.01 48.89 61.15 48.74C61.29 48.58 61.49 48.5 61.7 48.51C62.03 48.54 62.31 48.76 62.38 49.06C62.64 50.18 63.3 51.33 64.34 52.48C66.06 54.39 66.4 58.59 65.47 60.69C64.37 63.17 62.71 64.33 60.25 64.33H49.18C48.93 64.33 48.73 64.13 48.73 63.88C48.73 63.63 48.93 63.43 49.18 63.43H52.44C52.74 63.43 53.02 63.27 53.17 63.01H53.15Z" fill="#27BDBE"></path>
</g>
<defs>
<clipPath id="clip0_199_105">
<rect width="65.77" height="58.04" fill="white" transform="translate(5 8)"></rect>
</clipPath>
</defs>
</svg>