<svg width="75" height="75" viewBox="0 0 75 75" fill="none" xmlns="http://www.w3.org/2000/svg">
<g clip-path="url(#clip0_199_208)">
<path d="M59.3 30.39V50.02H11.06V21.54C11.06 19.89 12.4 18.54 14.06 18.54H44.49V16.48H14.05C11.26 16.48 9 18.75 9 21.53V53.3C9 56.09 11.27 58.35 14.05 58.35H25.66V63.26H22.41V65.32H47.73V63.26H44.48V58.35H56.3C59.09 58.35 61.35 56.08 61.35 53.3V30.38H59.29L59.3 30.39ZM42.43 59.05V63.28H27.72V59.05H42.43ZM59.3 52.08V53.32C59.3 54.97 57.96 56.32 56.3 56.32H14.05C12.4 56.32 11.05 54.98 11.05 53.32V52.08H59.3Z" fill="#191919"></path>
<path d="M37.29 45.08L38.89 42.81L40.47 45.04H43.03L40.28 41.17L42.87 37.51H40.5L39.07 39.6L34.95 33.91C36.99 33.28 38.11 31.77 38.11 29.64C38.11 27.51 37.04 24.88 31.94 24.88C30.31 24.88 28.02 25.06 28 25.06L27.77 25.08V41.48H29.93V34.62H31.76C32.14 34.62 32.51 34.6 32.85 34.57L37.63 41.2L34.93 45.07H37.29V45.08ZM35.91 29.62C35.91 31.64 34.55 32.71 31.99 32.71H29.93V26.76C30.38 26.74 31.35 26.7 31.9 26.7C33.73 26.7 35.91 27.21 35.91 29.61V29.62Z" fill="#191919"></path>
<path d="M56.712 10C51.916 10 48 13.905 48 18.712C48 23.519 51.916 27.424 56.712 27.424C61.508 27.424 65.424 23.519 65.424 18.712C65.424 13.905 61.519 10 56.712 10ZM57.757 23.563V24.388C57.757 24.696 57.504 24.949 57.196 24.949H56.426C56.118 24.949 55.865 24.696 55.865 24.388V23.607C55.128 23.442 54.413 23.068 53.896 22.562C53.797 22.496 53.731 22.364 53.709 22.221C53.698 22.078 53.731 21.935 53.819 21.825L54.303 21.132C54.358 21.022 54.512 20.923 54.677 20.89C54.853 20.879 55.007 20.912 55.128 21.022C55.689 21.495 56.206 21.726 56.712 21.726C57.482 21.726 57.581 21.33 57.581 20.989C57.581 20.395 57.086 20.098 56.283 19.68C55.304 19.196 54.028 18.569 54.028 16.908C54.028 15.687 54.743 14.708 55.865 14.356V13.531C55.865 13.223 56.118 12.97 56.426 12.97H57.196C57.515 12.97 57.757 13.212 57.757 13.531V14.323C58.538 14.521 59.044 14.983 59.396 15.368C59.583 15.577 59.583 15.907 59.407 16.116L58.857 16.732C58.615 16.974 58.274 16.941 58.065 16.787C57.625 16.358 57.372 16.193 56.888 16.193C56.437 16.193 56.173 16.435 56.173 16.853C56.173 17.293 56.536 17.524 57.372 17.931C58.373 18.426 59.715 19.086 59.715 20.912C59.715 22.199 58.967 23.2 57.757 23.563Z" fill="#27BDBE"></path>
</g>
<defs>
<clipPath id="clip0_199_208">
<rect width="57.39" height="56.33" fill="white" transform="translate(9 9)"></rect>
</clipPath>
</defs>
</svg>