<svg width="75" height="75" viewBox="0 0 75 75" fill="none" xmlns="http://www.w3.org/2000/svg">
<g clip-path="url(#clip0_199_183)">
<path d="M59.1 29.36V41.37H9.06V25.22H49.39V23.16H9.06V22.87C9.06 21.63 10.07 20.63 11.3 20.63H50.82V18.57H11.3C8.93 18.57 7 20.5 7 22.87V59.09C7 61.23 8.74 62.96 10.87 62.96H38.94C38.94 62.96 39.03 62.96 39.01 62.96H57.29C59.43 62.96 61.16 61.22 61.16 59.09V29.36H59.1ZM38 49.95L37.92 60.9H30.75L30.83 49.92L38 49.95ZM27.21 47.85V49.91H28.78L28.7 60.9H10.87C9.87 60.9 9.05 60.09 9.05 59.08V43.41H59.1V59.08C59.1 60.08 58.29 60.9 57.28 60.9H39.98L40.06 49.96H41.64V47.91L27.2 47.85H27.21Z" fill="#191919"></path>
<path d="M22.14 47.8L13.03 47.78C12.47 47.78 12.01 48.24 12 48.8L11.95 55.91C11.95 56.18 12.06 56.45 12.25 56.64C12.44 56.83 12.71 56.94 12.98 56.94L22.09 56.96C22.65 56.96 23.11 56.5 23.12 55.94L23.17 48.83C23.17 48.56 23.06 48.29 22.87 48.1C22.68 47.91 22.41 47.8 22.14 47.8ZM21.1 49.85L21.07 54.9L14.02 54.88L14.05 49.83L21.1 49.85Z" fill="#191919"></path>
<path d="M38.3099 29.9C38.1199 29.7 37.8599 29.6 37.5799 29.6L32.0299 29.58C31.4699 29.58 31.0099 30.04 30.9999 30.6L30.9599 36.08H30.6899V38.14L38.8199 38.18V36.12H38.5699L38.6099 30.64C38.6099 30.36 38.5099 30.1 38.3099 29.91V29.9ZM36.5399 31.65L36.5099 36.11L33.0199 36.09L33.0499 31.64H36.5399V31.65Z" fill="#191919"></path>
<path d="M46.24 56.94L55.35 56.96C55.91 56.96 56.37 56.5 56.38 55.94L56.43 48.83C56.43 48.56 56.32 48.29 56.13 48.1C55.94 47.9 55.68 47.8 55.4 47.8L46.29 47.78C45.73 47.78 45.27 48.24 45.26 48.8L45.21 55.91C45.21 56.18 45.32 56.45 45.51 56.64C45.7 56.84 45.96 56.94 46.24 56.94ZM47.28 54.88L47.31 49.83L54.36 49.85L54.33 54.9L47.28 54.88Z" fill="#191919"></path>
<path d="M21.6801 29.9C21.4901 29.7 21.2301 29.6 20.9501 29.6L15.4001 29.58C14.8401 29.58 14.3801 30.04 14.3701 30.6L14.3301 36.08H14.0601V38.14L22.1901 38.18V36.12H21.9401L21.9801 30.64C21.9801 30.36 21.8801 30.1 21.6801 29.91V29.9ZM19.9101 31.65L19.8801 36.11L16.3901 36.09L16.4201 31.64H19.9101V31.65Z" fill="#191919"></path>
<path d="M47.21 30.59L47.17 36.07H46.9V38.13L55.03 38.17V36.11H54.78L54.82 30.63C54.82 30.35 54.72 30.09 54.52 29.9C54.32 29.7 54.07 29.6 53.79 29.59L48.24 29.57C47.68 29.57 47.21 30.03 47.21 30.59ZM49.23 36.09L49.26 31.64H52.75L52.72 36.11L49.23 36.09Z" fill="#191919"></path>
<path d="M60.1299 13C63.9399 13 67.0303 16.0904 67.0303 19.9004C67.0301 23.7102 63.9198 26.7998 60.1299 26.7998C56.3401 26.7997 53.2307 23.7102 53.2305 19.9004C53.2305 16.0904 56.3299 13.0001 60.1299 13ZM59.0918 16.9482C58.5702 16.7761 58.0414 16.8317 57.5244 17.1074C56.7087 17.5488 56.2379 18.4751 56.3574 19.415C56.4839 20.401 57.1618 21.9154 59.6572 23.5264C59.7261 23.5746 59.8691 23.6505 60 23.7217L60.0234 23.7334L60.1475 23.791V23.7891L60.2646 23.7246C60.375 23.6649 60.5314 23.5772 60.5957 23.5312C63.0984 21.9156 63.7745 20.401 63.9033 19.415C64.0228 18.4751 63.5514 17.5488 62.7334 17.1074C62.2163 16.8316 61.6871 16.7782 61.1631 16.9482C60.7953 17.0724 60.4487 17.3121 60.1338 17.666C59.8833 17.3902 59.5331 17.0953 59.0918 16.9482Z" fill="#27BDBE"></path>
</g>
<defs>
<clipPath id="clip0_199_183">
<rect width="60.04" height="49.98" fill="white" transform="translate(7 13)"></rect>
</clipPath>
</defs>
</svg>