<svg width="75" height="75" viewBox="0 0 75 75" fill="none" xmlns="http://www.w3.org/2000/svg">
<g clip-path="url(#clip0_199_58)">
<path d="M57.81 14C52.24 14 47.71 18.53 47.71 24.1C47.71 29.67 52.24 34.2 57.81 34.2C63.38 34.2 67.91 29.67 67.91 24.1C67.91 18.53 63.38 14 57.81 14ZM65.71 24.1C65.71 28.46 62.17 32 57.81 32C53.45 32 49.91 28.46 49.91 24.1C49.91 19.74 53.45 16.2 57.81 16.2C62.17 16.2 65.71 19.74 65.71 24.1Z" fill="#191919"></path>
<path d="M61.92 20.41C61.82 20.29 61.67 20.22 61.51 20.22C61.35 20.24 61.18 20.28 61.08 20.4L56.45 25.03L54.52 23.11C54.3 22.91 53.92 22.91 53.69 23.11L52.71 24.1C52.59 24.22 52.53 24.37 52.53 24.53C52.53 24.69 52.6 24.83 52.71 24.93L56.04 28.27C56.16 28.37 56.3 28.42 56.45 28.42C56.6 28.42 56.75 28.35 56.85 28.25L62.88 22.21C63 22.11 63.08 21.94 63.08 21.78C63.08 21.63 63.01 21.48 62.9 21.37L61.93 20.4L61.92 20.41Z" fill="#191919"></path>
<path d="M27.2 24.18C27.2 18.62 22.67 14.08 17.1 14.08C11.53 14.08 7 18.62 7 24.18C7 29.74 11.53 34.28 17.1 34.28C22.67 34.28 27.2 29.75 27.2 24.18ZM17.1 16.28C21.46 16.28 25 19.82 25 24.18C25 28.54 21.46 32.08 17.1 32.08C12.74 32.08 9.2 28.54 9.2 24.18C9.2 19.82 12.74 16.28 17.1 16.28Z" fill="#191919"></path>
<path d="M15.34 28.36C15.46 28.46 15.6 28.51 15.75 28.51C15.9 28.51 16.05 28.44 16.15 28.34L22.18 22.3C22.3 22.2 22.38 22.03 22.38 21.87C22.38 21.72 22.31 21.57 22.2 21.46L21.22 20.49C21.12 20.37 20.97 20.3 20.81 20.3C20.64 20.31 20.48 20.36 20.38 20.48L15.75 25.11L13.82 23.19C13.6 22.99 13.22 22.99 12.99 23.19L12.01 24.18C11.89 24.3 11.83 24.45 11.83 24.61C11.83 24.77 11.9 24.91 12.01 25.01L15.34 28.35V28.36Z" fill="#191919"></path>
<path d="M36.13 20.51L34.62 18.91L29.87 23.41C29.64 23.63 29.51 23.94 29.53 24.25C29.54 24.57 29.69 24.86 29.94 25.06L34.97 29.12L36.35 27.41L33.48 25.09H45.47V22.89H33.62L36.14 20.5L36.13 20.51Z" fill="#191919"></path>
<path d="M32.27 50.28L30.76 51.88L33.28 54.27H22.12C19.76 54.27 17.84 52.35 17.84 49.99V36.12H15.64V49.99C15.64 53.57 18.55 56.47 22.12 56.47H33.41L30.54 58.79L31.92 60.5L36.95 56.44C37.2 56.24 37.35 55.95 37.36 55.63C37.38 55.32 37.25 55 37.02 54.78L32.27 50.28Z" fill="#191919"></path>
<path d="M53.72 42.5699H52.16V46.8799H53.72V42.5699Z" fill="#27BDBE"></path>
<path d="M61.35 52.0099H57.04V53.5699H61.35V52.0099Z" fill="#27BDBE"></path>
<path d="M59.1321 45.7657L55.7109 48.3871L56.6597 49.6254L60.0809 47.004L59.1321 45.7657Z" fill="#27BDBE"></path>
<path d="M47.48 47.6799C43.67 47.6799 40.54 50.7899 40.54 54.6199C40.54 58.4499 43.66 61.5599 47.48 61.5599C51.3 61.5599 54.42 58.4499 54.42 54.6199C54.42 50.7899 51.31 47.6799 47.48 47.6799ZM52.06 52.4899L46.42 58.1499C46.37 58.1999 46.28 58.2399 46.2 58.2399C46.11 58.2399 46.03 58.1999 45.97 58.1499L42.87 55.0399C42.74 54.9199 42.74 54.7199 42.87 54.5899L43.79 53.6699C43.91 53.5499 44.12 53.5499 44.24 53.6699L46.2 55.6199L50.69 51.1299C50.82 50.9999 51.02 50.9999 51.14 51.1299L52.06 52.0499C52.12 52.1099 52.16 52.1899 52.16 52.2799C52.16 52.3599 52.12 52.4499 52.06 52.4999V52.4899Z" fill="#27BDBE"></path>
</g>
<defs>
<clipPath id="clip0_199_58">
<rect width="60.91" height="47.56" fill="white" transform="translate(7 14)"></rect>
</clipPath>
</defs>
</svg>