<svg width="75" height="75" viewBox="0 0 75 75" fill="none" xmlns="http://www.w3.org/2000/svg">
<g clip-path="url(#clip0_199_173)">
<path d="M64.34 39.03C62.5 37.03 59.99 35.84 57.24 35.64C58.57 26.8 52.84 20.82 46.51 18.8C40.1 16.76 31.85 18.36 27.78 26.53C24.3 26.01 20.9 27.19 18.47 29.78C16.03 32.36 15 35.91 15.67 39.37C13.5 39.39 11.34 40.32 9.71 41.91C7.96 43.62 7 45.87 7 48.27C7 50.67 7.93 52.86 9.63 54.56C11.33 56.26 13.56 57.18 15.97 57.18L56.46 57.27C59.32 57.27 62.02 56.14 64.06 54.1C66.11 52.05 67.23 49.35 67.23 46.5C67.23 43.65 66.2 41.05 64.34 39.02V39.03ZM11.89 43.06C13.07 42.11 14.48 41.6 15.88 41.6C16.28 41.6 16.68 41.64 17.08 41.73C17.49 41.84 17.9 41.71 18.17 41.39C18.44 41.07 18.5 40.63 18.34 40.25C17.22 37.27 17.8 34.05 19.9 31.65C22 29.26 25.11 28.27 28.23 29C28.8 29.11 29.26 28.86 29.48 28.33C30.99 24.88 33.48 22.41 36.67 21.18C39.54 20.07 42.82 20.03 45.92 21.04C49.02 22.06 51.62 24.04 53.24 26.62C55.07 29.51 55.59 32.97 54.75 36.65C54.7 37 54.79 37.35 55.01 37.61C55.23 37.86 55.54 38.01 55.9 38.01C58.29 37.87 60.59 38.71 62.29 40.32C63.98 41.92 64.95 44.17 64.95 46.51C64.95 48.85 64.06 50.9 62.44 52.51C60.82 54.12 58.7 55.01 56.45 55.01L16 54.92C14.24 54.92 12.58 54.22 11.32 52.96C10.06 51.7 9.37 50.04 9.37 48.28C9.37 46.26 10.29 44.36 11.89 43.06Z" fill="#191919"></path>
<path d="M34.86 50.72C34.86 50.72 34.89 50.72 34.9 50.72C35.38 50.7 35.8 50.39 35.95 49.94L40.07 37.51L43.79 44.94C43.98 45.31 44.35 45.56 44.77 45.57C44.77 45.57 44.79 45.57 44.8 45.57C45.21 45.57 45.58 45.36 45.79 45L47.4 42.23L48.82 44.54C49.03 44.88 49.39 45.08 49.79 45.08L56.72 45.1V42.82L50.44 42.8L48.36 39.41C48.15 39.07 47.78 38.85 47.38 38.87C46.98 38.87 46.61 39.09 46.41 39.44L44.9 42.03L40.89 34.02C40.68 33.61 40.25 33.36 39.79 33.39C39.33 33.42 38.93 33.73 38.79 34.17L34.78 46.27L31.46 38.07C31.29 37.64 30.87 37.36 30.41 37.36C29.95 37.36 29.53 37.63 29.35 38.05L27.38 42.69L21.71 42.67V44.95L28.13 44.97C28.59 44.97 29.01 44.7 29.19 44.28L30.38 41.48L33.83 50C34 50.43 34.42 50.71 34.88 50.71L34.86 50.72Z" fill="#27BDBE"></path>
</g>
<defs>
<clipPath id="clip0_199_173">
<rect width="60.23" height="39.29" fill="white" transform="translate(7 18)"></rect>
</clipPath>
</defs>
</svg>