<svg width="75" height="75" viewBox="0 0 75 75" fill="none" xmlns="http://www.w3.org/2000/svg">
<g clip-path="url(#clip0_199_144)">
<path d="M58.49 21.21L47.34 9.35C47.13 9.13 46.84 9 46.54 9H22.11C18.74 9 16 11.74 16 15.11V59.47C16 62.84 18.74 65.58 22.11 65.58H52.68C56.05 65.58 58.79 62.84 58.79 59.47V21.96C58.79 21.68 58.68 21.41 58.49 21.21ZM51.54 23.06H56.58V59.47C56.58 61.63 54.83 63.38 52.67 63.38H22.11C19.95 63.38 18.2 61.63 18.2 59.47V15.11C18.2 12.95 19.95 11.2 22.11 11.2H45.44V16.95C45.44 20.32 48.18 23.06 51.55 23.06H51.54ZM51.54 20.86C49.38 20.86 47.63 19.11 47.63 16.95V12.88L55.14 20.86H51.54Z" fill="#191919"></path>
<path d="M43.12 45.67L45.99 41.62H43.42L41.81 43.97L37.18 37.57C39.46 36.87 40.71 35.2 40.71 32.83C40.71 30.46 39.52 27.56 33.86 27.56C32.05 27.56 29.49 27.76 29.47 27.76L29.24 27.78V46H31.59V38.35H33.66C34.09 38.35 34.5 38.33 34.89 38.29L39.84 45.15L40.24 45.71L37.25 49.99H39.8L41.6 47.44L43.38 49.95H46.16L43.11 45.67H43.12ZM38.31 32.8C38.31 35.07 36.79 36.27 33.91 36.27H31.59V29.59C32.08 29.57 33.19 29.53 33.81 29.53C35.86 29.53 38.31 30.1 38.31 32.8Z" fill="#27BDBE"></path>
</g>
<defs>
<clipPath id="clip0_199_144">
<rect width="42.79" height="56.58" fill="white" transform="translate(16 9)"></rect>
</clipPath>
</defs>
</svg>