<svg width="75" height="75" viewBox="0 0 75 75" fill="none" xmlns="http://www.w3.org/2000/svg">
<g clip-path="url(#clip0_199_177)">
<path d="M52.94 38.15V62.13C52.94 63.76 51.62 65.08 49.99 65.08H17.15C15.52 65.08 14.2 63.76 14.2 62.13V34C14.2 32.37 15.52 31.05 17.15 31.05H46.84V28.85H43.69V18.11C43.69 12.53 39.15 8 33.58 8C28.01 8 23.47 12.54 23.47 18.11V28.85H17.16C14.32 28.85 12.01 31.16 12.01 34V62.13C12.01 64.97 14.32 67.28 17.16 67.28H50.01C52.85 67.28 55.16 64.97 55.16 62.13V38.15H52.96H52.94ZM25.66 28.85V18.11C25.66 13.75 29.21 10.2 33.57 10.2C37.93 10.2 41.48 13.75 41.48 18.11V28.85H25.65H25.66Z" fill="#191919"></path>
<path d="M33.57 39.54C30.86 39.54 28.66 41.74 28.66 44.45C28.66 45.74 29.17 46.99 30.08 47.9L28.79 55.29C28.73 55.61 28.82 55.94 29.03 56.19C29.24 56.44 29.55 56.58 29.87 56.58H37.26C37.59 56.58 37.89 56.44 38.1 56.19C38.31 55.94 38.4 55.61 38.34 55.29L37.05 47.9C37.96 46.99 38.48 45.74 38.48 44.45C38.48 41.74 36.28 39.54 33.57 39.54ZM32.35 47.67C32.42 47.26 32.26 46.85 31.93 46.6C31.25 46.09 30.86 45.3 30.86 44.45C30.86 42.96 32.07 41.74 33.57 41.74C35.07 41.74 36.28 42.95 36.28 44.45C36.28 45.31 35.89 46.09 35.21 46.6C34.88 46.85 34.71 47.26 34.78 47.67L35.95 54.38H31.18L32.35 47.67Z" fill="#191919"></path>
<path d="M55.8 22.19C52 22.19 48.9 25.28 48.9 29.09C48.9 32.9 52.01 35.99 55.8 35.99C59.59 35.99 62.7 32.9 62.7 29.09C62.7 25.28 59.61 22.19 55.8 22.19ZM60.36 26.98L54.74 32.61C54.69 32.66 54.6 32.7 54.52 32.7C54.43 32.7 54.35 32.66 54.29 32.61L51.21 29.52C51.08 29.41 51.08 29.2 51.21 29.07L52.13 28.15C52.24 28.04 52.46 28.04 52.58 28.15L54.53 30.09L59 25.62C59.13 25.49 59.33 25.49 59.45 25.62L60.37 26.54C60.43 26.6 60.47 26.68 60.47 26.77C60.47 26.85 60.43 26.94 60.37 26.99L60.36 26.98Z" fill="#27BDBE"></path>
</g>
<defs>
<clipPath id="clip0_199_177">
<rect width="50.71" height="59.27" fill="white" transform="translate(12 8)"></rect>
</clipPath>
</defs>
</svg>