<svg width="75" height="75" viewBox="0 0 75 75" fill="none" xmlns="http://www.w3.org/2000/svg">
<g clip-path="url(#clip0_199_109)">
<path d="M61.4902 37.14V21.33C61.4902 20.83 61.2102 20.37 60.7702 20.13L37.8702 8.15C37.4802 7.95 37.0102 7.95 36.6202 8.15L13.7202 20.13C13.2802 20.36 13.0002 20.82 13.0002 21.33V37.11C13.0002 37.43 12.8802 44.93 18.8402 53.1C24.7502 61.2 36.2002 66.52 36.6802 66.74C36.8602 66.82 37.0502 66.86 37.2502 66.86C37.4502 66.86 37.6402 66.82 37.8102 66.74C38.3002 66.52 49.7602 61.16 55.6502 53.1C61.6202 44.92 61.5002 37.5 61.4902 37.14ZM58.7902 22.14V37.17C58.7902 37.24 58.8702 44.1 53.4702 51.5C48.6602 58.08 39.3502 62.96 37.2502 64C35.1402 62.95 25.8302 58.08 21.0302 51.5C15.6302 44.1 15.7102 37.21 15.7102 37.13V22.13L37.2502 10.87L58.8002 22.14H58.7902Z" fill="#191919"></path>
<path d="M36.8901 28.35L34.5301 33.44L29.5501 33.71C29.2601 33.73 29.0101 33.91 28.9101 34.17C28.8101 34.44 28.8701 34.74 29.0701 34.94L32.6601 38.56L31.9101 43.69C31.8701 43.97 31.9901 44.24 32.2201 44.4C32.3401 44.48 32.4801 44.52 32.6201 44.52C32.7501 44.52 32.8801 44.49 32.9901 44.42L37.5401 41.73L42.0901 44.42C42.3301 44.56 42.6301 44.55 42.8601 44.4C43.0901 44.24 43.2101 43.97 43.1701 43.69L42.4201 38.56L46.0101 34.94C46.2101 34.74 46.2701 34.43 46.1701 34.17C46.0701 33.9 45.8201 33.72 45.5301 33.71L40.5501 33.44L38.1901 28.35C37.9501 27.84 37.1101 27.84 36.8701 28.35H36.8901Z" fill="#27BDBE"></path>
</g>
<defs>
<clipPath id="clip0_199_109">
<rect width="48.49" height="58.86" fill="white" transform="translate(13 8)"></rect>
</clipPath>
</defs>
</svg>