<svg width="75" height="75" viewBox="0 0 75 75" fill="none" xmlns="http://www.w3.org/2000/svg">
<g clip-path="url(#clip0_199_214)">
<path d="M60.02 14H15.64C12.53 14 10 16.53 10 19.64V46.82C10 49.93 12.53 52.46 15.64 52.46H47.99L59.41 61.44C59.6 61.59 59.84 61.67 60.09 61.67C60.26 61.67 60.42 61.63 60.58 61.56C60.96 61.37 61.2 60.98 61.19 60.56L61.12 52.35C63.76 51.83 65.66 49.53 65.66 46.81V19.64C65.66 16.53 63.13 14 60.02 14ZM58.98 58.31L49.06 50.51C48.87 50.36 48.63 50.27 48.38 50.27H15.64C13.74 50.27 12.19 48.72 12.19 46.82V19.64C12.19 17.74 13.74 16.19 15.64 16.19H60.02C61.92 16.19 63.47 17.74 63.47 19.64V46.82C63.47 48.72 61.92 50.27 60.02 50.27C59.73 50.27 59.44 50.39 59.24 50.6C59.03 50.81 58.92 51.09 58.92 51.38L58.98 58.31Z" fill="#191919"></path>
<path d="M29.59 31.04L26.74 30.88L25.39 27.96C25.25 27.67 24.77 27.67 24.63 27.96L23.28 30.88L20.43 31.04C20.27 31.04 20.12 31.15 20.06 31.31C20 31.46 20.04 31.64 20.15 31.75L22.21 33.82L21.78 36.76C21.76 36.92 21.83 37.08 21.96 37.17C22.03 37.22 22.11 37.24 22.19 37.24C22.26 37.24 22.34 37.22 22.4 37.18L25.01 35.64L27.62 37.18C27.76 37.26 27.93 37.26 28.06 37.17C28.19 37.08 28.26 36.92 28.24 36.76L27.81 33.82L29.87 31.75C29.99 31.63 30.02 31.46 29.96 31.31C29.9 31.16 29.76 31.05 29.59 31.04Z" fill="#27BDBE"></path>
<path d="M42.4099 31.04L39.5599 30.88L38.2099 27.96C38.0699 27.67 37.5899 27.67 37.4499 27.96L36.0999 30.88L33.2499 31.04C33.0899 31.04 32.9399 31.15 32.8799 31.31C32.8199 31.46 32.8599 31.64 32.9699 31.75L35.0299 33.82L34.5999 36.76C34.5799 36.92 34.6499 37.08 34.7799 37.17C34.8499 37.22 34.9299 37.24 35.0099 37.24C35.0799 37.24 35.1599 37.22 35.2199 37.18L37.8299 35.64L40.4399 37.18C40.5799 37.26 40.7499 37.26 40.8799 37.17C41.0099 37.08 41.0799 36.92 41.0599 36.76L40.6299 33.82L42.6899 31.75C42.8099 31.63 42.8399 31.46 42.7799 31.31C42.7199 31.16 42.5799 31.05 42.4099 31.04Z" fill="#27BDBE"></path>
<path d="M55.62 31.31C55.56 31.16 55.42 31.05 55.25 31.04L52.4 30.88L51.05 27.96C50.91 27.67 50.43 27.67 50.29 27.96L48.94 30.88L46.09 31.04C45.93 31.04 45.78 31.15 45.72 31.31C45.66 31.46 45.7 31.64 45.81 31.75L47.87 33.82L47.44 36.76C47.42 36.92 47.49 37.08 47.62 37.17C47.69 37.22 47.77 37.24 47.85 37.24C47.92 37.24 48 37.22 48.06 37.18L50.67 35.64L53.28 37.18C53.42 37.26 53.59 37.26 53.72 37.17C53.85 37.08 53.92 36.92 53.9 36.76L53.47 33.82L55.53 31.75C55.65 31.63 55.68 31.46 55.62 31.31Z" fill="#27BDBE"></path>
</g>
<defs>
<clipPath id="clip0_199_214">
<rect width="55.67" height="47.68" fill="white" transform="translate(10 14)"></rect>
</clipPath>
</defs>
</svg>