<svg width="75" height="75" viewBox="0 0 75 75" fill="none" xmlns="http://www.w3.org/2000/svg">
<g clip-path="url(#clip0_199_302)">
<path d="M37.53 10C22.35 10 10 22.35 10 37.53C10 52.71 22.35 65.06 37.53 65.06C52.71 65.06 65.06 52.71 65.06 37.53C65.06 22.35 52.71 10 37.53 10ZM62.86 37.53C62.86 51.5 51.5 62.86 37.53 62.86C23.56 62.86 12.2 51.5 12.2 37.53C12.2 23.56 23.56 12.2 37.53 12.2C51.5 12.2 62.86 23.56 62.86 37.53Z" fill="#191919"></path>
<path d="M37.8199 47.78C32.7699 47.78 28.6699 43.68 28.6699 38.63C28.6699 34.76 31.1999 29.34 34.9699 27.4C35.2499 27.24 36.7399 26.41 38.2599 26.59C39.8099 26.77 40.9499 27.55 40.9899 27.59C44.6499 29.65 46.9599 34.94 46.9599 38.63C46.9599 43.68 42.8599 47.78 37.8099 47.78H37.8199ZM37.8299 28.39C37.0399 28.39 36.1499 28.81 35.8799 28.98C35.8599 28.99 35.8399 29 35.8199 29.01C32.6699 30.61 30.4799 35.36 30.4799 38.63C30.4799 42.67 33.7699 45.96 37.8099 45.96C41.8499 45.96 45.1399 42.67 45.1399 38.63C45.1399 35.44 43.0799 30.85 40.0199 29.13C39.9399 29.08 39.1199 28.53 38.0499 28.4C37.9799 28.4 37.8999 28.39 37.8299 28.39Z" fill="#27BDBE"></path>
<path d="M44.6899 33.28L43.8899 31.65L44.9599 31.12C46.9699 30.13 48.0699 27.91 47.6199 25.71L49.3999 25.35C50.0099 28.36 48.5099 31.4 45.7599 32.75L44.6899 33.28Z" fill="#27BDBE"></path>
<path d="M45.6099 36.0599L45.1599 34.2999L45.5899 34.1899C48.4399 33.4699 50.6699 31.1399 51.2699 28.2599L53.0499 28.6299C52.3099 32.1799 49.5599 35.0499 46.0399 35.9499L45.6099 36.0599Z" fill="#27BDBE"></path>
<path d="M53.6899 44.39C50.9599 44.39 50.1299 43.03 49.3899 41.82C48.7999 40.86 48.2899 40.03 46.7199 39.58L45.9999 39.53L46.1199 37.72L46.9299 37.78C46.9899 37.78 47.0499 37.79 47.1099 37.81C49.4399 38.44 50.2699 39.79 50.9399 40.88C51.5899 41.94 51.9799 42.58 53.6899 42.58H53.7299V44.4H53.6899V44.39Z" fill="#27BDBE"></path>
<path d="M47.7399 52.89L46.1799 51.96C46.3299 51.72 49.6899 45.91 45.0499 41.89L46.2399 40.52C50.8799 44.54 49.2499 50.37 47.7399 52.89Z" fill="#27BDBE"></path>
<path d="M31.1199 33.28L30.0499 32.75C27.2999 31.4 25.7999 28.36 26.4099 25.35L28.1899 25.71C27.7399 27.91 28.8399 30.13 30.8499 31.12L31.9199 31.65L31.1199 33.28Z" fill="#27BDBE"></path>
<path d="M30.1999 36.0599L29.7699 35.9499C26.2499 35.0599 23.4999 32.1899 22.7599 28.6299L24.5399 28.2599C25.1399 31.1399 27.3699 33.4599 30.2199 34.1899L30.6499 34.2999L30.1999 36.0599Z" fill="#27BDBE"></path>
<path d="M22.1199 44.39H22.0699V42.57C23.7999 42.55 24.2199 41.94 24.8799 40.87C25.5499 39.78 26.3799 38.43 28.7099 37.8C28.7699 37.78 28.8299 37.78 28.8899 37.77L29.6999 37.71L29.8199 39.52L29.0999 39.57C27.5299 40.02 27.0199 40.85 26.4299 41.81C25.6899 43.01 24.8599 44.38 22.1299 44.38L22.1199 44.39Z" fill="#27BDBE"></path>
<path d="M28.0699 52.89C26.5599 50.37 24.9299 44.54 29.5699 40.52L30.7599 41.89C26.1199 45.91 29.4799 51.71 29.6299 51.96L28.0699 52.89Z" fill="#27BDBE"></path>
<path d="M37.82 27.2899C38.5545 27.2899 39.15 26.6945 39.15 25.9599C39.15 25.2254 38.5545 24.6299 37.82 24.6299C37.0855 24.6299 36.49 25.2254 36.49 25.9599C36.49 26.6945 37.0855 27.2899 37.82 27.2899Z" fill="#27BDBE"></path>
<path d="M37.82 28.2C36.58 28.2 35.58 27.19 35.58 25.96C35.58 24.73 36.59 23.72 37.82 23.72C39.05 23.72 40.06 24.73 40.06 25.96C40.06 27.19 39.05 28.2 37.82 28.2ZM37.82 25.53C37.58 25.53 37.39 25.72 37.39 25.96C37.39 26.2 37.58 26.39 37.82 26.39C38.06 26.39 38.25 26.2 38.25 25.96C38.25 25.72 38.06 25.53 37.82 25.53Z" fill="#27BDBE"></path>
</g>
<defs>
<clipPath id="clip0_199_302">
<rect width="55.06" height="55.06" fill="white" transform="translate(10 10)"></rect>
</clipPath>
</defs>
</svg>