<svg width="75" height="75" viewBox="0 0 75 75" fill="none" xmlns="http://www.w3.org/2000/svg">
<g clip-path="url(#clip0_199_248)">
<path d="M54.4899 9L53.0099 10.62L55.5999 12.98L48.3799 20.96L42.2499 15.36L40.7699 16.98L43.2699 19.26L18.5499 46.32C18.1399 46.77 18.1699 47.47 18.6199 47.87L29.3399 57.66C29.5399 57.84 29.8099 57.95 30.1299 57.95C30.4199 57.94 30.6999 57.81 30.8899 57.59L55.5999 30.55L58.0999 32.83L59.5799 31.21L53.4499 25.61L60.6699 17.63L63.2499 19.99L64.7299 18.37L54.4899 9ZM28.0599 39.19L32.0499 42.84L33.5299 41.22L29.5399 37.58L36.6699 29.78L40.6599 33.43L42.1399 31.81L38.1499 28.16L44.8799 20.79L53.9699 29.1L29.9999 55.33L20.9099 47.02L28.0499 39.21L28.0599 39.19ZM49.9999 22.46L57.2199 14.48L59.0499 16.15L51.8299 24.13L49.9999 22.46Z" fill="#191919"></path>
<path d="M27.84 59.3099L17.12 49.5199C16.97 49.3899 16.78 49.3199 16.58 49.3199C16.38 49.3199 16.19 49.4199 16.06 49.5599C13.52 52.3399 13.71 56.6799 16.5 59.2199L16.62 59.3299L11 65.4799L12.48 66.8299L18.1 60.6799L18.22 60.7899C19.49 61.9499 21.12 62.5799 22.83 62.5799C22.93 62.5799 23.04 62.5799 23.15 62.5799C24.97 62.4999 26.66 61.7099 27.89 60.3599C28.02 60.2099 28.09 60.0199 28.09 59.8199C28.09 59.6199 27.99 59.4299 27.85 59.2999L27.84 59.3099Z" fill="#27BDBE"></path>
</g>
<defs>
<clipPath id="clip0_199_248">
<rect width="53.74" height="57.85" fill="white" transform="translate(11 9)"></rect>
</clipPath>
</defs>
</svg>