<svg width="75" height="75" viewBox="0 0 75 75" fill="none" xmlns="http://www.w3.org/2000/svg">
<g clip-path="url(#clip0_199_169)">
<path d="M38.8 29.4C40.31 27.41 41.18 25.25 41.24 23.29C41.24 23.17 41.24 17.71 41.24 17.09C41.24 11.53 36.71 7 31.15 7C25.59 7 21.06 11.53 21.06 17.09C21.06 17.15 21.06 23.21 21.06 23.35C21.13 25.35 22.04 27.55 23.61 29.56C16.02 32.67 12 38.94 12 47.72V62.35H14.21V47.73C14.2 40.89 16.77 35.9 21.86 32.89V42C19.59 42.51 17.97 44.51 17.97 46.86C17.97 47.6 17.97 51.28 17.97 51.36V51.61L20.17 51.55V51.3C20.17 51.14 20.17 46.91 20.17 46.86C20.17 45.32 21.42 44.07 22.96 44.07C24.5 44.07 25.75 45.32 25.75 46.86C25.75 46.9 25.75 51.15 25.75 51.27V51.52L27.94 51.57V51.32C27.94 51.32 27.94 46.9 27.94 46.86C27.94 44.51 26.32 42.52 24.05 42V31.78C24.43 31.62 24.82 31.46 25.21 31.32C27.17 33.16 29.38 34.25 31.14 34.25C32.9 34.25 35.22 33.11 37.22 31.18C37.4 31.24 37.58 31.31 37.76 31.37V35.96H39.96V32.36C45.37 35.2 48.11 40.02 48.11 46.69V46.94H50.31V46.69C50.31 35.7 43.24 31.17 38.79 29.41L38.8 29.4ZM39.04 17.09C39.04 17.15 39.04 23.03 39.04 23.22C38.91 27.59 33.89 32.03 31.15 32.03C28.41 32.03 23.42 27.62 23.27 23.28C23.27 23.05 23.27 17.14 23.27 17.08C23.27 12.73 26.81 9.19 31.16 9.19C35.51 9.19 39.05 12.73 39.05 17.08L39.04 17.09Z" fill="#191919"></path>
<path d="M60.17 54.66C59.36 53.76 58.84 52.86 58.65 52.06C58.42 51.06 57.55 50.33 56.5 50.25C55.75 50.19 55.07 50.48 54.59 51.04C54.11 51.6 53.92 52.33 54.08 53.05C54.44 54.67 55.32 56.27 56.7 57.8C57.6 58.8 57.73 61.57 57.29 62.55C57.14 62.9 56.9 63.2 56.59 63.46C56.43 62.1 55.95 60.07 54.63 57.89C52.94 55.1 50.33 52.79 46.87 51.04C45.16 50.17 44.32 47.78 43.57 45.67L43.53 45.57C43.4 45.2 43.27 44.84 43.14 44.5C42.26 42.17 39.32 38.55 37.59 38.81C37.26 38.86 36.98 39.04 36.78 39.32C36.27 40.02 36.31 41.44 36.44 42.54C34.92 43.34 34.14 44.15 33.62 46.65C33.6 46.75 33.42 47.05 32.5 47.87C32.36 47.99 32.25 48.09 32.19 48.16C32 48.35 31.92 48.63 31.97 48.9C32.01 49.09 32.38 50.82 33.74 51.85C34.77 52.63 35.95 52.66 36.61 52.61C36.79 52.82 37.05 53.31 37.08 54.34C36.73 56.69 37.39 57.97 37.87 58.91C38.1 59.37 38.27 59.7 38.27 60.03C38.27 60.27 38.1 61.37 36.36 65.56C35.84 66.82 36.29 68.05 37.47 68.56C37.75 68.68 38.05 68.74 38.38 68.74C39.44 68.74 40.4 68.08 40.84 67.07C40.94 66.84 41.15 66.39 41.43 65.83L41.51 65.67C42.11 64.43 42.93 62.74 43.38 61.59C44.59 61.71 45.59 62.6 45.82 63.78C45.89 64.12 45.98 64.46 46.09 64.8H44.17C43.01 64.8 42.07 65.74 42.07 66.9C42.07 68.06 43.01 69 44.17 69H54.96C58 69 60.22 67.48 61.56 64.47C62.69 61.92 62.34 57.09 60.17 54.69V54.66ZM48.07 65.19C48.07 65.19 47.65 64.44 47.45 63.44C47.02 61.23 44.99 59.71 42.73 59.9C42.4 59.93 42.11 60.15 42.01 60.47C41.69 61.45 40.68 63.53 40.01 64.92C39.7 65.56 39.43 66.11 39.31 66.39C39.14 66.79 38.76 67.06 38.37 67.06C38.27 67.06 38.18 67.04 38.11 67.01C37.99 66.96 37.62 66.8 37.88 66.18C39.21 62.99 39.89 60.93 39.92 60.05C39.94 59.3 39.64 58.71 39.34 58.13C38.92 57.3 38.44 56.37 38.72 54.5C38.72 54.45 38.73 54.4 38.72 54.36C38.67 51.65 37.29 51.01 37.14 50.95C36.99 50.89 36.81 50.87 36.65 50.91C36.54 50.93 35.51 51.1 34.73 50.5C34.17 50.07 33.86 49.39 33.71 48.99C34.38 48.39 35.08 47.7 35.24 46.98C35.69 44.81 36.16 44.5 37.7 43.75C38.03 43.59 38.22 43.23 38.16 42.87C38.03 42.02 37.98 41.08 38.05 40.57C38.92 41.08 40.81 43.07 41.57 45.08C41.71 45.44 41.84 45.83 41.98 46.22C42.83 48.63 43.8 51.35 46.1 52.51C55.26 57.15 55 64.46 54.98 64.77C54.96 65.05 55.09 65.32 55.31 65.48C55.53 65.65 55.83 65.69 56.09 65.6C57.35 65.15 58.31 64.3 58.79 63.21C59.45 61.74 59.32 58.22 57.92 56.67C56.74 55.36 55.99 54.02 55.69 52.68C55.65 52.48 55.69 52.28 55.83 52.12C55.96 51.97 56.16 51.89 56.36 51.9C56.68 51.92 56.95 52.14 57.02 52.43C57.27 53.52 57.91 54.64 58.93 55.76C60.61 57.62 60.94 61.71 60.03 63.76C58.96 66.18 57.34 67.3 54.95 67.3H44.16C43.92 67.3 43.72 67.1 43.72 66.86C43.72 66.62 43.92 66.42 44.16 66.42H47.33C47.62 66.42 47.9 66.26 48.05 66.01C48.2 65.76 48.2 65.44 48.05 65.18L48.07 65.19Z" fill="#27BDBE"></path>
</g>
<defs>
<clipPath id="clip0_199_169">
<rect width="50.19" height="61.97" fill="white" transform="translate(12 7)"></rect>
</clipPath>
</defs>
</svg>