<svg width="75" height="75" viewBox="0 0 75 75" fill="none" xmlns="http://www.w3.org/2000/svg">
<g clip-path="url(#clip0_199_201)">
<path d="M59.71 12H14.1L13.89 12.04C12.23 12.01 10.91 12.47 10.06 13.4C8.72 14.88 9.02 16.9 9.05 17.08V51.43C9.05 54.4 11.47 56.82 14.44 56.82H27.01V61.39H23.53V63.56H50.61V61.39H47.13V56.82H59.7C62.67 56.82 65.09 54.4 65.09 51.43V17.39C65.09 14.42 62.67 12 59.7 12H59.71ZM44.98 56.83V61.4H29.18V56.83H44.98ZM11.2 16.42H11.19C11.19 16.01 11.25 15.35 11.68 14.88C12.16 14.35 13.03 14.13 14.29 14.23L14.54 14.19L59.71 14.17C61.49 14.17 62.94 15.62 62.94 17.4V47.93H11.22V16.67L11.2 16.42ZM62.94 50.09V51.43C62.94 53.21 61.49 54.66 59.71 54.66H14.45C12.67 54.66 11.22 53.21 11.22 51.43V50.09H62.94Z" fill="#191919"></path>
<path d="M38.8517 40.5458C36.3494 40.7987 33.8072 39.9601 31.9039 38.2298C30.3599 36.8323 29.3484 34.9556 29.0422 32.9058L30.5995 34.2634L31.9438 32.7328L28.2037 29.4718C27.9907 29.2855 27.7245 29.1923 27.445 29.2323C27.1788 29.2589 26.9259 29.392 26.7396 29.6183L23.838 33.3184L25.4352 34.5696L26.6198 33.0655C26.9792 35.7675 28.2569 38.2165 30.2801 40.04C32.4097 41.9566 35.1382 43.0214 37.9599 43.0214C38.3992 43.0214 38.8517 42.9948 39.2909 42.9416L39.5305 42.915L39.0647 40.5325L38.865 40.5591L38.8517 40.5458Z" fill="#27BDBE"></path>
<path d="M29.6811 27.7415C30.7326 25.4522 32.7424 23.6953 35.2047 22.9233C37.0814 22.3377 39.0779 22.3776 40.928 23.0431L38.9981 23.2694L39.2376 25.2925L44.1624 24.7202C44.4419 24.6935 44.6948 24.5471 44.8545 24.3209C45.0142 24.1079 45.0807 23.8284 45.0408 23.5356L44.2555 18.9037L42.2457 19.2497L42.5651 21.0998C40.0096 19.9552 37.1613 19.7688 34.486 20.6207C31.7441 21.4858 29.4548 23.296 28.0173 25.7184C27.791 26.1044 27.5781 26.5037 27.4051 26.903L27.3119 27.116L29.6012 27.9279L29.6811 27.7415Z" fill="#27BDBE"></path>
<path d="M49.2068 33.8375C49.7258 31.0158 49.2068 28.1408 47.716 25.745C47.5829 25.5321 47.4498 25.3191 47.3034 25.1194L47.1703 24.9331L45.2004 26.344L45.3335 26.517C46.7444 28.5002 47.2768 30.9492 46.8243 33.3983C46.4383 35.4746 45.3602 37.3247 43.7363 38.669L43.9759 36.606L41.9528 36.3797L41.3938 41.3044C41.3672 41.5839 41.447 41.8634 41.6334 42.0764C41.8064 42.276 42.0593 42.4091 42.3521 42.4358L47.0505 42.7153L47.1703 40.6788L45.2537 40.5724C47.3434 38.8554 48.7409 36.4862 49.2201 33.8375H49.2068Z" fill="#27BDBE"></path>
</g>
<defs>
<clipPath id="clip0_199_201">
<rect width="56.11" height="51.56" fill="white" transform="translate(9 12)"></rect>
</clipPath>
</defs>
</svg>