<svg width="75" height="75" viewBox="0 0 75 75" fill="none" xmlns="http://www.w3.org/2000/svg">
<g clip-path="url(#clip0_199_264)">
<path d="M37.53 10C22.35 10 10 22.35 10 37.53C10 52.71 22.35 65.06 37.53 65.06C52.71 65.06 65.06 52.71 65.06 37.53C65.06 22.35 52.71 10 37.53 10ZM62.86 37.53C62.86 51.5 51.5 62.86 37.53 62.86C23.56 62.86 12.2 51.5 12.2 37.53C12.2 23.56 23.56 12.2 37.53 12.2C51.5 12.2 62.86 23.56 62.86 37.53Z" fill="#191919"></path>
<path d="M50.31 52.6699C49.72 52.6699 49.16 52.4699 48.68 52.0799C47.68 51.2799 47.03 49.7199 46.82 47.5799C46.82 47.5799 46.82 47.5099 46.82 47.4999C46.79 46.8099 46.54 44.3999 44.49 42.4899C43.04 41.1299 40.82 40.5599 37.91 40.7999C31.6 41.3099 26.87 39.9999 23.83 36.8999C20.54 33.5499 20.54 29.3899 20.62 28.1899C20.72 25.8799 21.69 23.1899 24.1 23.1899C24.8 23.1899 25.42 23.4399 25.89 23.9299C26.74 24.7999 27.14 26.3599 27.1 28.7099C27.08 29.0999 27.07 30.9599 28.51 32.3799C30.12 33.9799 33.2 34.6499 37.39 34.3099C42.24 33.9199 46.14 35.0899 48.98 37.7699C53.33 41.8799 53.34 47.0399 53.33 47.6199C53.26 50.6699 52.3 52.4499 50.63 52.6499C50.53 52.6599 50.42 52.6699 50.32 52.6699H50.31ZM48.32 47.4299C48.49 49.1099 48.97 50.3799 49.63 50.9099C49.88 51.1099 50.15 51.1999 50.45 51.1599C51.65 51.0199 51.8 48.3899 51.82 47.5899C51.82 47.3899 51.89 42.5899 47.94 38.8699C45.42 36.4899 41.91 35.4599 37.5 35.8099C32.85 36.1899 29.38 35.3699 27.44 33.4499C25.56 31.5799 25.57 29.1499 25.59 28.6799C25.63 26.1999 25.12 25.2999 24.81 24.9799C24.62 24.7799 24.39 24.6899 24.09 24.6899C22.65 24.6899 22.17 27.0099 22.11 28.2399C22.06 29.0299 21.97 32.8699 24.89 35.8499C27.6 38.6099 31.95 39.7699 37.78 39.2999C41.12 39.0299 43.73 39.7299 45.51 41.3899C47.98 43.6999 48.28 46.5999 48.32 47.4399V47.4299Z" fill="#27BDBE"></path>
<path d="M26.4668 29.7988L21.5143 30.5558L21.7409 32.0386L26.6934 31.2816L26.4668 29.7988Z" fill="#27BDBE"></path>
<path d="M27.0986 32.2496L23.556 35.7922L24.6167 36.8529L28.1593 33.3103L27.0986 32.2496Z" fill="#27BDBE"></path>
<path d="M29.4143 33.7111L27.9203 38.4932L29.352 38.9405L30.8461 34.1584L29.4143 33.7111Z" fill="#27BDBE"></path>
<path d="M32.7881 34.9617L32.0969 39.9238L33.5826 40.1308L34.2738 35.1687L32.7881 34.9617Z" fill="#27BDBE"></path>
<path d="M36.6876 35.0073L36.3391 40.1455L37.8357 40.247L38.1842 35.1088L36.6876 35.0073Z" fill="#27BDBE"></path>
<path d="M40.8967 35.0688L40.2139 40.1128L41.7003 40.314L42.3832 35.27L40.8967 35.0688Z" fill="#27BDBE"></path>
<path d="M45.4885 36.4202L43.1907 40.8722L44.5236 41.5602L46.8214 37.1082L45.4885 36.4202Z" fill="#27BDBE"></path>
<path d="M49.5076 39.4356L45.5662 42.5283L46.4921 43.7084L50.4336 40.6157L49.5076 39.4356Z" fill="#27BDBE"></path>
<path d="M51.5996 43.5761L46.7803 44.9453L47.1902 46.3882L52.0095 45.019L51.5996 43.5761Z" fill="#27BDBE"></path>
</g>
<defs>
<clipPath id="clip0_199_264">
<rect width="55.06" height="55.06" fill="white" transform="translate(10 10)"></rect>
</clipPath>
</defs>
</svg>